<svg width="30" height="30" viewBox="0 0 30 30" fill="none" xmlns="http://www.w3.org/2000/svg">
<path fill-rule="evenodd" clip-rule="evenodd" d="M2 2.52941C2 1.68474 2.68474 1 3.52941 1H26.4706C27.3153 1 28 1.68474 28 2.52941V19.0343C28.6334 20.0374 29 21.2259 29 22.5C29 26.0899 26.0899 29 22.5 29C20.6566 29 18.9925 28.2327 17.8096 27H3.52941C2.68474 27 2 26.3153 2 25.4706V2.52941ZM26.9804 2.52941V17.7908C25.905 16.7674 24.4795 16.1085 22.902 16.0122V14.7647C22.902 14.4831 22.6737 14.2549 22.3922 14.2549H18.4068L15.6077 12.4373C15.5055 12.371 15.3852 12.3195 15.2549 12.283V9.66667H15.7647C16.3278 9.66667 16.7843 9.21017 16.7843 8.64706V7.62745H19.3333V8.64706C19.3333 9.21017 19.7898 9.66667 20.3529 9.66667H24.4314C24.9945 9.66667 25.451 9.21017 25.451 8.64706V4.56863C25.451 4.00551 24.9945 3.54902 24.4314 3.54902H20.3529C19.7898 3.54902 19.3333 4.00551 19.3333 4.56863V6.60784H16.7843V4.56863C16.7843 4.00551 16.3278 3.54902 15.7647 3.54902H5.56863C5.00551 3.54902 4.54902 4.00551 4.54902 4.56863V8.64706C4.54902 9.21017 5.00551 9.66667 5.56863 9.66667H14.2353V12.283C14.105 12.3195 13.9847 12.371 13.8825 12.4373L11.0834 14.2549H7.60784C7.32629 14.2549 7.09804 14.4831 7.09804 14.7647L7.09804 18.3333H5.56863C5.00551 18.3333 4.54902 18.7898 4.54902 19.3529V23.4314C4.54902 23.9945 5.00551 24.451 5.56863 24.451H9.64706C10.2102 24.451 10.6667 23.9945 10.6667 23.4314V19.3529C10.6667 18.7898 10.2102 18.3333 9.64706 18.3333H8.11765V15.2745H11.0834L13.8825 17.0921C14.3376 17.3876 15.1526 17.3876 15.6077 17.0921L18.4068 15.2745H21.8824V16.029C18.5822 16.34 16 19.1185 16 22.5C16 23.7803 16.3702 24.9742 17.0093 25.9804H3.52941C3.24785 25.9804 3.01961 25.7521 3.01961 25.4706V2.52941C3.01961 2.24785 3.24785 2.01961 3.52941 2.01961H26.4706C26.7521 2.01961 26.9804 2.24785 26.9804 2.52941ZM15.7647 4.56863H5.56863L5.56863 8.64706H14.7451H15.7647V4.56863ZM14.5277 13.2602C14.588 13.2451 14.6631 13.2353 14.7451 13.2353C14.8271 13.2353 14.9022 13.2451 14.9625 13.2602C14.9919 13.2675 15.0146 13.2754 15.0306 13.282C15.0451 13.288 15.0518 13.2921 15.0524 13.2925L15.0525 13.2925L17.3197 14.7647L15.0525 16.2369L15.0524 16.237C15.0518 16.2373 15.0451 16.2414 15.0306 16.2474C15.0146 16.2541 14.9919 16.2619 14.9625 16.2692C14.9022 16.2843 14.8271 16.2941 14.7451 16.2941C14.6631 16.2941 14.588 16.2843 14.5277 16.2692C14.4983 16.2619 14.4756 16.2541 14.4596 16.2474C14.4451 16.2414 14.4384 16.2373 14.4378 16.237L14.4377 16.2369L12.1705 14.7647L14.4377 13.2925L14.4378 13.2925C14.4384 13.2921 14.4451 13.288 14.4596 13.282C14.4756 13.2754 14.4983 13.2675 14.5277 13.2602ZM20.3529 4.56863H24.4314V8.64706H20.3529V4.56863ZM5.56863 19.3529V23.4314H9.64706V19.3529H5.56863ZM22.5 28C25.5376 28 28 25.5376 28 22.5C28 19.4624 25.5376 17 22.5 17C19.4624 17 17 19.4624 17 22.5C17 25.5376 19.4624 28 22.5 28ZM21.848 21.8036C22.0231 21.6377 22.2544 21.5469 22.5013 21.5469C22.6228 21.5466 22.7431 21.5691 22.8552 21.6132C22.9674 21.6572 23.0692 21.7219 23.1547 21.8036C23.329 21.9694 23.4256 22.1885 23.4256 22.4224C23.4256 22.6563 23.329 22.8754 23.1547 23.0412C22.9796 23.2063 22.7483 23.2979 22.5013 23.2979C22.2544 23.2979 22.0231 23.2063 21.848 23.0412C21.6737 22.8754 21.577 22.6563 21.577 22.4224C21.577 22.1885 21.6737 21.9694 21.848 21.8036ZM25.3667 22.9521L25.9069 23.3894C25.9904 23.4575 26.0209 23.5662 25.9854 23.6632L25.978 23.6835C25.8285 24.0771 25.6079 24.4393 25.3205 24.7608L25.3056 24.7773C25.271 24.8161 25.2247 24.844 25.1729 24.8572C25.1211 24.8705 25.0663 24.8685 25.0157 24.8516L24.345 24.6255C24.0972 24.818 23.8213 24.969 23.5223 25.0754L23.3926 25.7396C23.3828 25.7896 23.3572 25.8356 23.3191 25.8716C23.2811 25.9075 23.2324 25.9316 23.1795 25.9406L23.1572 25.9445C22.7234 26.0185 22.2792 26.0185 21.8455 25.9445L21.8232 25.9406C21.7703 25.9316 21.7216 25.9075 21.6836 25.8716C21.6455 25.8356 21.6199 25.7896 21.6101 25.7396L21.4796 25.0722C21.183 24.9674 20.9088 24.8156 20.6627 24.6239L19.987 24.8516C19.9364 24.8684 19.8816 24.8703 19.8299 24.857C19.7781 24.8438 19.7318 24.816 19.6971 24.7773L19.6822 24.7608C19.3948 24.4409 19.1742 24.0771 19.0247 23.6835L19.0173 23.6632C18.999 23.6153 18.9966 23.5634 19.0104 23.5142C19.0241 23.465 19.0533 23.4209 19.0941 23.3878L19.6393 22.9458C19.6136 22.8003 19.6013 22.6501 19.6013 22.4999C19.6013 22.3512 19.6136 22.201 19.6393 22.0539L19.0924 21.6119C19.009 21.5438 18.9785 21.4343 19.0156 21.3365L19.0231 21.3162C19.1723 20.9226 19.395 20.5577 19.6806 20.2389L19.6954 20.2224C19.7301 20.1836 19.7764 20.1557 19.8282 20.1425C19.8799 20.1292 19.9348 20.1312 19.9853 20.1481L20.661 20.3758C20.9058 20.1853 21.1817 20.0339 21.4779 19.9275L21.6084 19.2601C21.6182 19.2101 21.6438 19.1641 21.6819 19.1281C21.72 19.0922 21.7687 19.0681 21.8215 19.0591L21.8438 19.0552C22.2734 18.9816 22.726 18.9816 23.1555 19.0552L23.1778 19.0591C23.2307 19.0681 23.2794 19.0922 23.3175 19.1281C23.3555 19.1641 23.3812 19.2101 23.3909 19.2601L23.5206 19.9243C23.8196 20.03 24.0955 20.1817 24.3433 20.3742L25.014 20.1481C25.0646 20.1313 25.1194 20.1294 25.1712 20.1427C25.2229 20.1559 25.2692 20.1837 25.304 20.2224L25.3188 20.2389C25.6049 20.5574 25.8277 20.9224 25.9763 21.3162L25.9838 21.3365C26.002 21.3844 26.0044 21.4363 25.9907 21.4855C25.977 21.5347 25.9478 21.5788 25.9069 21.6119L25.3667 22.0492C25.3923 22.1971 25.4056 22.3496 25.4056 22.5006C25.4056 22.6516 25.3923 22.8034 25.3667 22.9521ZM21.0492 22.4224C21.0492 23.1821 21.6993 23.7978 22.5013 23.7978C23.3034 23.7978 23.9535 23.1821 23.9535 22.4224C23.9535 21.6627 23.3034 21.047 22.5013 21.047C21.6993 21.047 21.0492 21.6627 21.0492 22.4224Z" fill="#7F7F7F"/>
</svg>
