<svg xmlns="http://www.w3.org/2000/svg"><symbol id="ui-square-outline" viewBox="0 0 16 16"><path d="M4 4v8h8V4H4ZM2 2h12v12H2V2Z"/></symbol><symbol id="ui-square-outline-x2" viewBox="0 0 100 100"><path d="M30,40L10,40L10,90L60,90L60,70L90,70L90,10L30,10L30,40ZM40,20L80,20L80,60L60,60L60,40L40,40L40,20ZM50,80L20,80L20,50L50,50L50,80Z" stroke="none"/></symbol><symbol id="social-vimeo" viewBox="0 0 16 16"><path d="M15.85 2.782c-.178-.833-.623-1.382-1.446-1.65-.824-.267-2.313-.16-3.354.6-1.065.776-1.696 2.127-1.917 2.985.524-.224.855-.274 1.39-.246a.908.908 0 0 1 .887.902c.01.35-.007.666-.128.987-.385 1.023-.987 2.013-1.696 2.88a2.566 2.566 0 0 1-.357.352c-.363.296-.67.218-.905-.185A4.992 4.992 0 0 1 7.89 8.37c-.442-1.415-.6-2.883-.849-4.333-.117-.695-.249-1.419-.641-2.028-.413-.634-1.02-.876-1.782-.784-.524.064-1.315.624-1.703.94 0 0-1.996 1.672-2.915 2.545l.755.962s.638-.445.98-.652c.204-.12.442-.146.613.007.16.14.342.321.439.503.203.381.399.78.523 1.19.47 1.579.91 3.16 1.347 4.75.225.813.496 1.575.998 2.267.688.947 1.411 1.165 2.527.766.905-.325 1.66-.934 2.352-1.565 1.18-1.076 2.106-2.33 3.046-3.606a16.766 16.766 0 0 0 1.832-3.1c.495-1.105.691-2.263.438-3.45Z"/></symbol><symbol id="ui-mail" viewBox="0 0 16 16"><path fill-rule="evenodd" d="M1 2h14a1 1 0 0 1 1 1v10a1 1 0 0 1-1 1H1a1 1 0 0 1-1-1V3a1 1 0 0 1 1-1Zm1.64 1.232a1 1 0 1 0-1.28 1.536l6 5a1 1 0 0 0 1.28 0l6-5a1 1 0 1 0-1.28-1.536L8 7.698 2.64 3.232Z"/></symbol><symbol id="ui-settings" viewBox="0 0 16 16"><path d="M13.92 8.8c0-.24.08-.48.08-.8 0-.32 0-.56-.08-.8l1.68-1.36c.16-.16.16-.32.08-.48l-1.6-2.8c-.08-.08-.24-.16-.48-.08l-2 .8c-.4-.32-.88-.56-1.36-.8L9.92.4C10 .16 9.76 0 9.6 0H6.4c-.16 0-.4.16-.4.32l-.32 2.16c-.48.16-.88.48-1.36.8l-1.92-.8c-.24-.08-.4 0-.56.16l-1.6 2.8c-.08.08 0 .32.16.48L2.08 7.2c0 .24-.08.48-.08.8 0 .32 0 .56.08.8L.4 10.16c-.16.16-.16.32-.08.48l1.6 2.8c.08.08.24.16.48.08l2-.8c.4.32.88.56 1.36.8l.32 2.08c0 .16.16.32.4.32h3.2c.16 0 .4-.16.4-.32l.32-2.08c.48-.24.96-.48 1.36-.8l2 .8c.16.08.4 0 .48-.16l1.6-2.8c.08-.16.08-.4-.08-.48L13.92 8.8ZM8 10.8c-1.52 0-2.8-1.28-2.8-2.8 0-1.52 1.28-2.8 2.8-2.8 1.52 0 2.8 1.28 2.8 2.8 0 1.52-1.28 2.8-2.8 2.8Z"/></symbol><symbol id="menu-log-out" viewBox="0 0 24 24"><path d="M18.586 13H9a1 1 0 0 1 0-2h9.586l-2.293-2.293a1 1 0 1 1 1.414-1.414l4 4a1 1 0 0 1 0 1.414l-4 4a1 1 0 0 1-1.414-1.414L18.586 13ZM10 21a1 1 0 0 1 0 2H5a3 3 0 0 1-3-3V4a3 3 0 0 1 3-3h5a1 1 0 0 1 0 2H5a1 1 0 0 0-1 1v16a1 1 0 0 0 1 1h5Z"/></symbol><symbol id="social-twitch" viewBox="0 0 16 16"><path d="M1.143 0 0 2.857v10.857h3.429V16h2.285L8 13.714h2.857l4-4V0H1.143Zm12 9.143-2.286 2.286H7.43l-2.286 2.285V11.43H2.286V1.714h10.857v7.429ZM9.714 3.964h1.715v4.607H9.714V3.964Zm-4 0H7.43v4.607H5.714V3.964Z"/></symbol><symbol id="social-windows" viewBox="0 0 16 16"><path d="m0 13.683 6.456.935V8.44H0v5.242Zm0-6.124h6.456V1.382L0 2.317V7.56Zm7.338 7.187L16 16V8.441H7.338v6.305Zm0-13.492v6.305H16V0L7.338 1.254Z"/></symbol><symbol id="social-xbox" viewBox="0 0 16 16"><path d="m13.088 3.195.049.05A6.984 6.984 0 0 1 14.998 8a6.98 6.98 0 0 1-1.818 4.706l-.002.005a7.034 7.034 0 0 1-2.351 1.695A6.971 6.971 0 0 1 8 15a6.978 6.978 0 0 1-4.949-2.05A6.978 6.978 0 0 1 1.002 8c0-.91.172-1.778.488-2.575a6.976 6.976 0 0 1 1.407-2.212c.036-.04.357-.383.849-.416h.018c.24.014.484.073.725.163.237.088.469.205.69.336l.004.003.023.016.005.002c.91.55 1.632 1.346 1.634 1.348l.098.107-.105.1c-.442.422-1.238 1.345-1.953 2.34-.527.734-1.01 1.507-1.267 2.141-.482 1.183-.6 2.005-.604 2.52.143-.35.353-.728.594-1.105.654-1.024 1.547-2.053 1.964-2.498.174-.185.413-.433.673-.7.302-.309.632-.643.918-.93.455-.462.725-.731.726-.732l.103-.103.105.101a67.484 67.484 0 0 1 .6.587 50.601 50.601 0 0 1 1.965 2.068h.001c.228.257.56.645.858 1.004.266.32.5.61.603.756.314.44.54.837.7 1.17.078.16.141.307.192.438a4.396 4.396 0 0 0-.191-1.65c-.222-.724-.614-1.434-1.104-2.23-.983-1.596-2.587-3.155-2.591-3.16l-.11-.107.112-.106a9.927 9.927 0 0 1 1.905-1.432 5.52 5.52 0 0 1 1.015-.464l.035-.006c.169-.011.35.006.527.075.15.059.296.154.427.298h.001l.046.048ZM4.29 2.431l.005-.004a.198.198 0 0 1-.03.026l-.19-.226a.88.88 0 0 1 .16-.132 6.68 6.68 0 0 1 1.784-.82A7.08 7.08 0 0 1 8.001 1a7 7 0 0 1 3.595.994c.05.03.146.094.239.17.067.055.133.116.182.175l-.225.194-.005-.005c-.903-.976-3.692 1.268-3.7 1.275l-.091.072-.093-.071c-.5-.386-.98-.71-1.42-.96-.43-.245-.821-.419-1.154-.51a1.64 1.64 0 0 0-.6-.06.848.848 0 0 0-.432.151l-.002.002-.005.004Z"/></symbol><symbol id="social-pinterest" viewBox="0 0 16 16"><path d="M8.002 0A8 8 0 0 0 0 7.998a8.005 8.005 0 0 0 4.79 7.327c-.021-.557-.003-1.228.14-1.835l1.028-4.36s-.257-.51-.257-1.264c0-1.185.686-2.07 1.543-2.07.73 0 1.08.545 1.08 1.199 0 .732-.469 1.824-.708 2.839-.2.85.425 1.538 1.265 1.538 1.514 0 2.536-1.946 2.536-4.252 0-1.753-1.183-3.064-3.33-3.064-2.425 0-3.94 1.81-3.94 3.832 0 .696.208 1.189.529 1.567.147.175.168.246.114.446-.039.147-.125.5-.164.643-.054.204-.218.275-.4.2-1.118-.457-1.64-1.678-1.64-3.056 0-2.271 1.919-4.996 5.72-4.996 3.054 0 5.065 2.21 5.065 4.581 0 3.139-1.747 5.481-4.319 5.481-.864 0-1.675-.467-1.954-.996 0 0-.464 1.843-.564 2.2-.168.617-.5 1.231-.804 1.714A8 8 0 0 0 16 8.002 7.996 7.996 0 0 0 8.002 0Z"/></symbol><symbol id="ui-minus" viewBox="0 0 16 16"><rect width="8" height="2" x="4" y="7" fill-rule="evenodd" rx=".5"/></symbol><symbol id="social-youtube" viewBox="0 0 16 16"><path d="M15.896 4.65c0-1.406-1.034-2.537-2.313-2.537A113.213 113.213 0 0 0 8.283 2H7.72c-1.8 0-3.57.031-5.3.113C1.143 2.113.11 3.25.11 4.657A45.793 45.793 0 0 0 0 7.995a47.77 47.77 0 0 0 .106 3.34c0 1.407 1.035 2.548 2.31 2.548 1.82.084 3.685.122 5.582.119 1.9.006 3.76-.032 5.582-.12 1.278 0 2.313-1.14 2.313-2.546.075-1.116.11-2.229.106-3.345a45.925 45.925 0 0 0-.103-3.34ZM6.47 11.06V4.92l4.532 3.068-4.532 3.073Z"/></symbol><symbol id="social-sketchfab" viewBox="0 0 16 16"><path fill-rule="evenodd" d="M8.471 12.815V8.79l3.594-2.202v4.026L8.47 12.815ZM3.935 6.588 7.53 8.79v4.025l-3.594-2.2V6.587Zm8.006-1.03L8 7.974 4.06 5.559 8 3.145l3.94 2.414ZM8 0a8 8 0 1 0 0 16A8 8 0 0 0 8 0Z"/></symbol><symbol id="ui-circle-outline" viewBox="0 0 16 16"><path d="M8 13A5 5 0 1 0 8 3a5 5 0 0 0 0 10Zm0 2A7 7 0 1 1 8 1a7 7 0 0 1 0 14Z"/></symbol><symbol id="ui-vendor" viewBox="0 0 16 16"><path d="M12 0a1 1 0 0 1 .707.293l3 3a1 1 0 0 1-.26 1.601c-.68.341-1.549.538-2.446.591V9h1a1 1 0 0 1 .98 1.196l-1 5A1 1 0 0 1 13 16H3a1 1 0 0 1-.981-.804l-1-5A1 1 0 0 1 2 9h1V5.485c-.897-.053-1.766-.25-2.447-.59a1 1 0 0 1-.26-1.602l3-3A1 1 0 0 1 4 0Zm.78 11H3.22l.6 3h8.36l.6-3ZM11 5.363a6.383 6.383 0 0 1-.8-.205c-1.423 1.123-2.976 1.123-4.402 0-.252.084-.52.152-.797.204V9h6ZM11.586 2H4.414L2.938 3.476l.257.017c.86.04 1.762-.09 2.358-.387a1.02 1.02 0 0 1 .368-.103L5.959 3a.871.871 0 0 1 .238.018 1.077 1.077 0 0 1 .111.03l.029.01a.876.876 0 0 1 .067.026l.014.007c.102.046.197.11.279.19l.01.01c.943.944 1.643.944 2.586 0l.016-.015a.999.999 0 0 1 1.138-.171l-.081-.037a.993.993 0 0 1 .066.029l.015.008c.656.327 1.681.45 2.615.37L11.586 2Z"/></symbol><symbol id="social-playstation" viewBox="0 0 16 16"><path fill-rule="evenodd" d="M9.593 4.612c.044.215.029.435.031.654.002 1.205-.003 2.411.003 3.617.363.17.755.298 1.159.294.266.005.536-.055.77-.182.245-.131.447-.335.592-.57.165-.268.263-.57.319-.878.067-.354.068-.715.056-1.073-.024-.55-.106-1.107-.345-1.607a2.61 2.61 0 0 0-.53-.743 3.469 3.469 0 0 0-.683-.524c-.549-.326-1.152-.544-1.758-.737a41.404 41.404 0 0 0-1.164-.355A23.06 23.06 0 0 0 5.983 2v11.52l2.605.827c.003-3.229 0-6.457.001-9.686.006-.183.037-.378.154-.525a.32.32 0 0 1 .307-.119.666.666 0 0 1 .313.147c.13.113.199.28.23.448Zm-6.805 6.827c.895-.32 1.788-.642 2.684-.96.007-.06.003-.12.004-.18V8.965c-1.133.4-2.265.804-3.397 1.205-.276.1-.556.19-.827.306-.314.132-.624.28-.904.473a.832.832 0 0 0-.295.324.56.56 0 0 0-.017.436.96.96 0 0 0 .324.405c.25.19.548.306.848.393a8.498 8.498 0 0 0 4.264.279c.008-.075.003-.15.004-.226 0-.376.002-.753-.001-1.129-.383.137-.765.277-1.147.415a2.851 2.851 0 0 1-.45.137c-.228.05-.462.068-.695.072-.21-.01-.424-.021-.62-.1-.07-.032-.147-.072-.178-.147-.024-.064.012-.13.057-.174a.957.957 0 0 1 .346-.195Zm12.956-.864c-.226-.203-.51-.329-.793-.432-.159-.05-.313-.114-.473-.162-.812-.255-1.666-.36-2.515-.364-.258.01-.517.017-.773.046a9.704 9.704 0 0 0-2.108.466v1.566c.941-.329 1.88-.662 2.82-.992a3.11 3.11 0 0 1 .975-.148c.21.006.425.02.623.099.07.03.145.07.177.144.03.083-.03.16-.092.21-.152.12-.344.169-.523.236l-3.96 1.412c-.028.005-.017.039-.02.058v1.458l5.207-1.87c.284-.105.576-.194.847-.333.255-.129.508-.276.7-.492a.602.602 0 0 0 .163-.42c-.001-.19-.119-.358-.255-.482Z"/></symbol><symbol id="ui-reply" viewBox="0 0 16 16"><path d="M16 14s-1.533-8.667-9.333-8.667V2L0 8l6.667 5.6V9.754c4.233 0 7.125.371 9.333 4.246Z"/></symbol><symbol id="social-google" viewBox="0 0 16 16"><path d="M15.354 6.554H7.945l.001 3.072h4.29a3.698 3.698 0 0 1-1.576 2.432 4.5 4.5 0 0 1-1.733.684c-.62.106-1.26.12-1.88-.005a4.625 4.625 0 0 1-1.752-.757 4.892 4.892 0 0 1-1.804-2.418 4.768 4.768 0 0 1 .001-3.066A4.885 4.885 0 0 1 4.635 4.64a4.687 4.687 0 0 1 2.35-1.306 4.663 4.663 0 0 1 2.312.095c.634.192 1.219.54 1.698.997.484-.482.965-.966 1.448-1.448.254-.26.52-.507.766-.774a7.62 7.62 0 0 0-2.534-1.57A7.961 7.961 0 0 0 5.372.588a7.907 7.907 0 0 0-4.46 3.907 7.833 7.833 0 0 0-.684 1.978 7.882 7.882 0 0 0 .683 5.091 7.932 7.932 0 0 0 2.139 2.629 7.836 7.836 0 0 0 2.86 1.442c1.312.352 2.708.344 4.028.044a7.11 7.11 0 0 0 3.223-1.677c.953-.876 1.633-2.029 1.992-3.268a9.25 9.25 0 0 0 .2-4.18Z"/></symbol><symbol id="icon-sandbox" viewBox="0 0 24 24"><path d="M19 2a3 3 0 0 1 3 3v14a3 3 0 0 1-3 3H5a3 3 0 0 1-3-3V5a3 3 0 0 1 3-3h14ZM4 9v10a1 1 0 0 0 1 1h2V9H4Zm15-5H5a1 1 0 0 0-1 1v2h16V5a1 1 0 0 0-1-1ZM9 20h10a1 1 0 0 0 1-1V9H9v11Z"/></symbol><symbol id="social-steam" viewBox="0 0 16 16"><path d="M14.803 5.838c0 .814-.663 1.475-1.48 1.475-.82 0-1.482-.66-1.482-1.475 0-.815.663-1.475 1.481-1.475.818 0 1.48.66 1.48 1.475Zm-.597 2.492-1.793 1.528c.02.122.033.246.033.373a2.36 2.36 0 0 1-2.364 2.355 2.362 2.362 0 0 1-2.305-1.835L3.345 9.253A2.082 2.082 0 0 1 0 7.6c0-1.147.934-2.078 2.086-2.078.99 0 1.818.688 2.032 1.61l4.281 1.447a2.361 2.361 0 0 1 1.63-.7l.64-1.941c-.001-.039-.005-.077-.005-.116a2.663 2.663 0 0 1 2.668-2.657A2.663 2.663 0 0 1 16 5.82c0 1.163-.75 2.148-1.794 2.51ZM3.398 6.888a1.46 1.46 0 0 0-1.277-.75C1.314 6.138.66 6.79.66 7.593a1.458 1.458 0 0 0 1.889 1.391l-.694-.234a1.142 1.142 0 0 1-.47-1.55 1.15 1.15 0 0 1 1.554-.467l.459.155Zm7.853-1.06c0 1.14.928 2.064 2.072 2.064a2.069 2.069 0 0 0 2.073-2.065c0-1.14-.929-2.064-2.073-2.064a2.068 2.068 0 0 0-2.072 2.064Zm.041 4.605a1.575 1.575 0 0 0-1.932-1.53l.882.298c.559.298.769.992.47 1.548a1.15 1.15 0 0 1-1.555.469l-.95-.321a1.577 1.577 0 0 0 1.508 1.107c.87 0 1.577-.703 1.577-1.57Z"/></symbol><symbol id="social-instagram" viewBox="0 0 16 16"><path d="M14.431 1.537c.816.816 1.255 1.945 1.255 3.263v6.463c0 1.349-.439 2.51-1.286 3.325-.816.785-1.945 1.224-3.294 1.224h-6.4c-1.286 0-2.416-.408-3.263-1.224C.565 13.741.125 12.58.125 11.231V4.8c0-2.73 1.82-4.549 4.55-4.549h6.462c1.318 0 2.479.44 3.294 1.286Zm-.125 9.726V4.8c0-.91-.314-1.694-.847-2.259-.565-.565-1.35-.847-2.29-.847H4.706c-.941 0-1.757.282-2.29.816-.565.565-.847 1.349-.847 2.29v6.431c0 .973.282 1.757.847 2.322.564.533 1.349.816 2.29.816h6.4c.941 0 1.725-.283 2.29-.816.565-.533.91-1.318.91-2.29Zm-6.4-7.279c2.196 0 4.016 1.82 4.016 4.016a4.023 4.023 0 0 1-4.016 4.016A4.003 4.003 0 0 1 3.89 8a4.023 4.023 0 0 1 4.016-4.016Zm0 6.589A2.584 2.584 0 0 0 10.478 8a2.584 2.584 0 0 0-2.572-2.573A2.584 2.584 0 0 0 5.333 8a2.584 2.584 0 0 0 2.573 2.573ZM12.078 4.8a.91.91 0 1 1 0-1.82.91.91 0 0 1 0 1.82Z"/></symbol><symbol id="ui-image" viewBox="0 0 16 16"><path d="M14.125 2c.488 0 .875.397.875.884v10.232a.878.878 0 0 1-.875.884H1.875A.878.878 0 0 1 1 13.116V2.884C1 2.397 1.387 2 1.875 2h12.25Zm-3.222 6.178L14 11.512l-.01-8.137A.397.397 0 0 0 13.589 3H2.409A.412.412 0 0 0 2 3.366v8.14l3.953-4.769A.69.69 0 0 1 7 6.728l1.681 1.82c.047.047.103.1.135.128.087.078.209.128.343.128.141 0 .238-.06.36-.147l.584-.494c.128-.103.24-.178.4-.178.163 0 .306.085.4.194ZM11.5 7a1.5 1.5 0 1 1 0-3 1.5 1.5 0 0 1 0 3Z"/></symbol><symbol id="menu-control-panel" viewBox="0 0 24 24"><path d="M20.299 8.715A.647.647 0 0 0 20.83 9H21a3 3 0 0 1 0 6h-.086a.65.65 0 0 0-.595.394.65.65 0 0 0 .118.719l.06.06a3 3 0 1 1-4.244 4.244l-.052-.052a.654.654 0 0 0-.727-.126.649.649 0 0 0-.394.591V21a3 3 0 0 1-6 0 .698.698 0 0 0-.484-.685.647.647 0 0 0-.709.122l-.06.06a3 3 0 1 1-4.244-4.244l.052-.052a.654.654 0 0 0 .126-.727.649.649 0 0 0-.591-.394H3a3 3 0 0 1 0-6 .698.698 0 0 0 .685-.484.647.647 0 0 0-.122-.709l-.06-.06a3 3 0 1 1 4.244-4.244l.052.052a.65.65 0 0 0 .717.13 1 1 0 0 1 .2-.064A.647.647 0 0 0 9 3.17V3a3 3 0 0 1 6 0v.086c.001.26.156.493.404.6a.647.647 0 0 0 .709-.123l.06-.06a3 3 0 1 1 4.244 4.244l-.052.052a.65.65 0 0 0-.13.717 1 1 0 0 1 .064.2ZM9.129 5.672a2.655 2.655 0 0 1-2.736-.615l-.06-.06a1 1 0 1 0-1.416 1.416l.068.068c.757.774.967 1.932.554 2.864A2.657 2.657 0 0 1 3.09 11.08H3a1 1 0 0 0 0 2h.174a2.646 2.646 0 0 1 2.42 1.596 2.654 2.654 0 0 1-.537 2.931l-.06.06a1 1 0 1 0 1.416 1.416l.068-.068c.774-.757 1.932-.967 2.864-.554a2.657 2.657 0 0 1 1.735 2.449V21a1 1 0 0 0 2 0v-.174a2.646 2.646 0 0 1 1.596-2.42 2.654 2.654 0 0 1 2.931.537l.06.06a1 1 0 1 0 1.416-1.416l-.068-.068a2.65 2.65 0 0 1-.53-2.923A2.648 2.648 0 0 1 20.91 13H21a1 1 0 0 0 0-2h-.174a2.65 2.65 0 0 1-2.425-1.606 1 1 0 0 1-.073-.264 2.655 2.655 0 0 1 .615-2.737l.06-.06a1 1 0 1 0-1.416-1.416l-.068.068a2.646 2.646 0 0 1-2.913.534A2.651 2.651 0 0 1 13 3.09V3a1 1 0 0 0-2 0v.174a2.65 2.65 0 0 1-1.606 2.425 1 1 0 0 1-.264.073ZM12 16a4 4 0 1 1 0-8 4 4 0 0 1 0 8Zm0-2a2 2 0 1 0 0-4 2 2 0 0 0 0 4Z"/></symbol><symbol id="ui-time" viewBox="0 0 16 16"><path d="M8 0a8 8 0 1 1 0 16A8 8 0 0 1 8 0Zm0 2a6 6 0 1 0 0 12A6 6 0 0 0 8 2Zm0 2a1 1 0 0 1 1 1v2.434l2.014 1.209a1 1 0 0 1-1.028 1.714l-2.5-1.5A1 1 0 0 1 7 8V5a1 1 0 0 1 1-1Z"/></symbol><symbol id="ui-wallet" viewBox="0 0 16 16"><path d="M8 0a1 1 0 0 1 .993.883L9 1v3h6a1 1 0 0 1 1 1v10a1 1 0 0 1-1 1H1a1 1 0 0 1-1-1V4A4 4 0 0 1 3.8.005L4 0h4Zm6 6H2v8h12V6Zm-3 3a1 1 0 1 1 0 2 1 1 0 0 1 0-2ZM7 2H4a2 2 0 0 0-1.995 1.85L2 4h5V2Z"/></symbol><symbol id="social-discord" viewBox="0 0 16 16"><path d="M13.783 3.311c-1.385-1.114-3.575-1.302-3.669-1.31a.345.345 0 0 0-.344.205 2.306 2.306 0 0 0-.106.289c.916.155 2.041.466 3.059 1.098a.348.348 0 1 1-.367.59C10.606 3.099 8.421 3.044 8 3.044c-.421 0-2.607.055-4.356 1.14a.348.348 0 0 1-.367-.591c1.018-.63 2.143-.942 3.059-1.096-.053-.172-.1-.281-.105-.29a.343.343 0 0 0-.345-.204c-.094.007-2.284.195-3.688 1.324C1.466 4.004 0 7.966 0 11.392c0 .06.016.12.046.172 1.011 1.777 3.77 2.242 4.4 2.262h.01a.348.348 0 0 0 .282-.142l.636-.875c-1.716-.443-2.593-1.196-2.643-1.24a.348.348 0 0 1 .46-.522c.021.019 1.635 1.388 4.809 1.388 3.18 0 4.793-1.375 4.81-1.388a.348.348 0 0 1 .459.521c-.05.045-.927.798-2.643 1.24l.636.876c.065.09.17.142.281.142h.011c.63-.02 3.389-.485 4.4-2.262a.35.35 0 0 0 .046-.172c0-3.426-1.466-7.388-2.217-8.08Zm-8.044 6.69c-.672 0-1.217-.623-1.217-1.392 0-.769.545-1.391 1.217-1.391.673 0 1.218.622 1.218 1.391 0 .77-.545 1.391-1.218 1.391Zm4.522 0c-.673 0-1.218-.623-1.218-1.392 0-.769.545-1.391 1.218-1.391.672 0 1.217.622 1.217 1.391 0 .77-.545 1.391-1.217 1.391Z"/></symbol><symbol id="social-substance" viewBox="0 0 16 16"><path fill-rule="evenodd" d="M15.054 7.597c-.195-.06-.378-.113-.56-.171-.819-.26-1.635-.523-2.455-.775-.156-.048-.233-.118-.2-.282.08-.41-.108-.625-.47-.819-1.065-.571-2.106-1.187-3.152-1.792-.128-.074-.223-.075-.351-.001-.793.46-1.59.912-2.387 1.368-.064.037-.126.078-.226.14.092.036.147.06.204.078l8.947 2.842c.183.058.37.109.55.178.048.02.106.095.107.145.006 1.133.007 2.266-.002 3.4 0 .065-.074.153-.138.19-.986.57-1.976 1.133-2.965 1.698-1.252.716-2.505 1.43-3.755 2.151-.122.07-.211.07-.334 0-2.234-1.282-4.47-2.56-6.707-3.836-.09-.052-.16-.098-.159-.223.005-1.11.003-2.22.003-3.33 0-.04.009-.08.016-.143.221.066.432.126.642.192.802.25 1.604.504 2.407.75.126.039.197.094.168.23-.1.459.128.686.518.895 1.055.565 2.084 1.178 3.122 1.775.097.056.177.088.29.023.849-.491 1.701-.977 2.553-1.465.044-.025.084-.057.154-.104-.12-.042-.21-.078-.301-.107l-6.686-2.09c-.903-.281-1.805-.566-2.709-.843C1.041 7.63.999 7.567 1 7.426c.006-1.087.006-2.174 0-3.26 0-.135.043-.21.16-.276C3.404 2.612 5.645 1.33 7.884.046c.112-.064.194-.06.303.003 2.245 1.287 4.491 2.57 6.738 3.853.087.05.144.097.143.213-.005 1.122-.003 2.243-.003 3.365 0 .034-.006.067-.011.117"/></symbol><symbol id="ui-cart-outline" viewBox="0 0 16 16"><path d="M5.5 12a1.5 1.5 0 1 1 0 3 1.5 1.5 0 0 1 0-3Zm7 0a1.5 1.5 0 1 1 0 3 1.5 1.5 0 0 1 0-3ZM1 1h2a1 1 0 0 1 .936.649l.034.108L5.78 9h6.5l1.333-4H7a1 1 0 0 1-.117-1.993L7 3h8a1 1 0 0 1 .98 1.202l-.031.114-2 6a1 1 0 0 1-.833.677L13 11H5a1 1 0 0 1-.936-.649l-.034-.108L2.22 3H1a1 1 0 0 1-.117-1.993L1 1h2Z"/></symbol><symbol id="ui-download" viewBox="0 0 16 16"><path fill-rule="evenodd" d="m7.293 11.707-3-3a.999.999 0 1 1 1.414-1.414L7 8.586V1a1 1 0 0 1 2 0v7.586l1.293-1.293a.999.999 0 1 1 1.414 1.414l-3 3a.999.999 0 0 1-1.414 0ZM15 10a1 1 0 0 1 1 1v4a1 1 0 0 1-1 1H1a1 1 0 0 1-1-1v-4a1 1 0 1 1 2 0v3h12v-3a1 1 0 0 1 1-1Z"/></symbol><symbol id="editor-align-right" viewBox="0 0 16 16"><path d="M15 11.5v1c0 .135-.05.253-.148.352A.476.476 0 0 1 14.5 13h-13a.483.483 0 0 1-.352-.148A.476.476 0 0 1 1 12.5v-1c0-.135.05-.253.148-.352A.476.476 0 0 1 1.5 11h13c.135 0 .253.05.352.148.1.099.149.216.148.352Zm0-3v1c0 .135-.05.253-.148.352A.476.476 0 0 1 14.5 10h-10a.483.483 0 0 1-.352-.148A.476.476 0 0 1 4 9.5v-1c0-.135.05-.253.148-.352A.476.476 0 0 1 4.5 8h10c.135 0 .253.05.352.148.1.099.149.216.148.352Zm0-3v1c0 .135-.05.253-.148.352A.476.476 0 0 1 14.5 7h-12a.483.483 0 0 1-.352-.148A.476.476 0 0 1 2 6.5v-1c0-.135.05-.253.148-.352A.476.476 0 0 1 2.5 5h12c.135 0 .253.05.352.148.1.099.149.216.148.352Zm0-3v1c0 .135-.05.253-.148.352A.476.476 0 0 1 14.5 4h-9a.483.483 0 0 1-.352-.148A.476.476 0 0 1 5 3.5v-1c0-.135.05-.253.148-.352A.476.476 0 0 1 5.5 2h9c.135 0 .253.05.352.148.1.099.149.216.148.352Z"/></symbol><symbol id="ui-bookmark" viewBox="0 0 16 16"><path fill-rule="evenodd" d="M3 0h10a1 1 0 0 1 1 1v15l-6-5-6 5V1a1 1 0 0 1 1-1Z"/></symbol><symbol id="editor-subscript" viewBox="0 0 16 16"><path d="M9.008 9.695V11H7.071L5.829 9.031l-.187-.328a.388.388 0 0 1-.086-.164h-.023l-.07.164a4.295 4.295 0 0 1-.195.344L4.057 11H2.041V9.695h1L4.58 7.422 3.135 5.297h-1.07V3.984h2.156l1.086 1.781c.01.02.07.13.18.328.041.047.07.101.086.164h.023a.701.701 0 0 1 .086-.164l.195-.328 1.094-1.781h2.008v1.313h-.977L6.564 7.383l1.594 2.313h.852l-.002-.001ZM14 11.391V13H9.984l-.031-.211a55.593 55.593 0 0 1-.023-.359c0-.333.068-.638.203-.914s.305-.501.508-.676a10.077 10.077 0 0 1 1.312-.934c.203-.12.373-.26.508-.422a.772.772 0 0 0 .203-.5.606.606 0 0 0-.23-.488.835.835 0 0 0-.551-.191c-.265 0-.518.102-.758.305a2.031 2.031 0 0 0-.281.297l-.82-.719c.135-.193.3-.365.492-.516a2.258 2.258 0 0 1 1.469-.508c.573 0 1.036.155 1.391.465.355.31.532.723.531 1.238 0 .344-.09.653-.27.926-.18.273-.399.497-.656.672-.257.175-.516.337-.777.488-.26.15-.487.315-.68.492-.193.177-.3.367-.32.57h1.812v-.625H14v.001Z"/></symbol><symbol id="menu-getting-started" viewBox="0 0 24 24"><path d="M17.653 6.347a1 1 0 1 1 1.414-1.414c3.905 3.906 3.904 10.237-.001 14.141-3.905 3.905-10.237 3.905-14.142 0C1.02 15.17 1.018 8.84 4.923 4.933a1 1 0 1 1 1.414 1.414 8 8 0 1 0 11.316 0ZM11 1a1 1 0 0 1 2 0v10a1 1 0 0 1-2 0V1Z"/></symbol><symbol id="social-apple" viewBox="0 0 16 16"><path d="M10.916 3.736c1.055 0 2.173.594 2.971 1.62-2.61 1.476-2.186 5.325.453 6.355-.361.831-.536 1.201-1.005 1.937-.653 1.022-1.571 2.298-2.714 2.31H10.6c-.99 0-1.26-.673-2.606-.673h-.02c-1.368.009-1.663.678-2.656.678h-.02c-1.144-.013-2.016-1.164-2.669-2.19C.805 10.904.614 7.538 1.74 5.751 2.543 4.484 3.806 3.74 4.99 3.74c1.21 0 1.97.682 2.968.682.972 0 1.562-.686 2.959-.686ZM10.608 0c.142.972-.245 1.92-.756 2.59-.528.701-1.434 1.25-2.319 1.25h-.067c-.166-.927.258-1.883.773-2.527C8.81.603 9.777.058 10.61 0Z"/></symbol><symbol id="ui-plus-circled" viewBox="0 0 16 16"><path fill-rule="evenodd" d="M9 7V4.5a.5.5 0 0 0-.5-.5h-1a.5.5 0 0 0-.5.5V7H4.5a.5.5 0 0 0-.5.5v1a.5.5 0 0 0 .5.5H7v2.5a.5.5 0 0 0 .5.5h1a.5.5 0 0 0 .5-.5V9h2.5a.5.5 0 0 0 .5-.5v-1a.5.5 0 0 0-.5-.5H9Zm-1 9A8 8 0 1 1 8 0a8 8 0 0 1 0 16Z"/></symbol><symbol id="ui-info-circled" viewBox="0 0 16 16"><path d="M16 7.893A8.003 8.003 0 0 0 7.892 0C3.475.058-.057 3.69 0 8.107A8.003 8.003 0 0 0 8.107 16c4.418-.06 7.953-3.689 7.892-8.106ZM8 2.854A1.142 1.142 0 1 1 8 5.14a1.142 1.142 0 1 1 0-2.286Zm1.571 10.11H6.43v-.393h.785V6.857H6.43V6.43h2.357v6.142h.785v.393Z"/></symbol><symbol id="ui-sort-ascending" viewBox="0 0 16 16"><path d="m8 2.414 3.293 3.293a1 1 0 0 0 1.414-1.414l-4-4a1 1 0 0 0-1.414 0l-4 4a1 1 0 0 0 1.414 1.414L8 2.414Z"/><path opacity=".3" d="m8 13.586 3.293-3.293a1 1 0 0 1 1.414 1.414l-4 4a1 1 0 0 1-1.414 0l-4-4a1 1 0 0 1 1.414-1.414L8 13.586Z"/></symbol><symbol id="menu-roadmap" viewBox="0 0 24 24"><path d="m4.953 10.708 5.29 1.322a1 1 0 0 1 .727.727l1.322 5.29 6.606-13.945-13.945 6.606Zm4.222 3.117L1.757 11.97c-.91-.228-1.034-1.472-.185-1.874l19-9c.85-.402 1.734.483 1.332 1.332l-9 19c-.402.849-1.646.725-1.874-.185l-1.855-7.418Z"/></symbol><symbol id="ui-sort-descending" viewBox="0 0 16 16"><path opacity=".3" d="m8 2.414 3.293 3.293a1 1 0 0 0 1.414-1.414l-4-4a1 1 0 0 0-1.414 0l-4 4a1 1 0 0 0 1.414 1.414L8 2.414Z"/><path d="m8 13.586 3.293-3.293a1 1 0 0 1 1.414 1.414l-4 4a1 1 0 0 1-1.414 0l-4-4a1 1 0 0 1 1.414-1.414L8 13.586Z"/></symbol><symbol id="ui-bars-three-of-three" viewBox="0 0 16 16"><rect width="4" height="12" y="2" rx="1"/><rect width="4" height="12" x="6" y="2" rx="1"/><rect width="4" height="12" x="12" y="2" rx="1"/></symbol><symbol id="menu-gallery" viewBox="0 0 24 24"><path d="M20 12.586V5a1 1 0 0 0-1-1H5a1 1 0 0 0-1 1v14a1 1 0 0 0 .65.937L15.292 9.293a1 1 0 0 1 1.414 0L20 12.586Zm0 2.828-4-4L7.414 20H19a1 1 0 0 0 1-1v-3.586ZM5 2h14a3 3 0 0 1 3 3v14a3 3 0 0 1-3 3H5a3 3 0 0 1-3-3V5a3 3 0 0 1 3-3Zm3.5 9a2.5 2.5 0 1 1 0-5 2.5 2.5 0 0 1 0 5Zm0-2a.5.5 0 1 0 0-1 .5.5 0 0 0 0 1Z"/></symbol><symbol id="ui-upload" viewBox="0 0 16 16"><path fill-rule="evenodd" d="M7.293.293a.999.999 0 0 1 1.414 0l3 3a.999.999 0 1 1-1.414 1.414L9 3.414V11a1 1 0 0 1-2 0V3.414L5.707 4.707a.999.999 0 1 1-1.414-1.414l3-3ZM15 10a1 1 0 0 1 1 1v4a1 1 0 0 1-1 1H1a1 1 0 0 1-1-1v-4a1 1 0 1 1 2 0v3h12v-3a1 1 0 0 1 1-1Z"/></symbol><symbol id="ui-heart" viewBox="0 0 16 16"><path d="M10.77 3A3.23 3.23 0 0 0 8 4.561 3.23 3.23 0 0 0 5.23 3 3.225 3.225 0 0 0 2 6.22c0 .926.392 1.76 1.02 2.347l4.624 4.411a.46.46 0 0 0 .69.022l4.648-4.433A3.209 3.209 0 0 0 14 6.22 3.225 3.225 0 0 0 10.77 3Z"/></symbol><symbol id="ui-cube-outline" viewBox="0 0 16 16"><path d="m1.376 3.668-.01.007a.902.902 0 0 1 .056-.038l.025-.014 6-3.5a.9.9 0 0 1 .799-.054l.107.054 6 3.5a.952.952 0 0 1 .136.096l.02.019a.885.885 0 0 1 .284.549l.007.113v7a.9.9 0 0 1-.348.71l-.099.067-6 3.5a.9.9 0 0 1-.799.054l-.107-.054-6-3.5a.9.9 0 0 1-.44-.658L1 11.4v-7l.007-.113c.025-.204.12-.4.283-.55l.022-.018.059-.048.024-.016-.02.013ZM2.8 5.967v4.916l4.2 2.45V8.417l-4.2-2.45ZM13 5.966l-4.2 2.45v4.917l4.2-2.45V5.966ZM7.9 1.942 3.686 4.4 7.9 6.858 12.114 4.4 7.9 1.942Z"/></symbol><symbol id="menu-help" viewBox="0 0 24 24"><path d="M6.382 19.032A8.962 8.962 0 0 0 12 21a8.962 8.962 0 0 0 5.618-1.968l-2.86-2.86A4.977 4.977 0 0 1 12 17a4.977 4.977 0 0 1-2.757-.828l-2.86 2.86Zm-1.414-1.414 2.86-2.86A4.977 4.977 0 0 1 7 12c0-1.02.305-1.967.828-2.757l-2.86-2.86A8.962 8.962 0 0 0 3 12c0 2.125.736 4.078 1.968 5.618Zm11.204-8.375c.523.79.828 1.738.828 2.757 0 1.02-.305 1.967-.828 2.757l2.86 2.86A8.962 8.962 0 0 0 21 12a8.962 8.962 0 0 0-1.968-5.618l-2.86 2.86Zm-1.415-1.415 2.86-2.86A8.962 8.962 0 0 0 12 3a8.962 8.962 0 0 0-5.618 1.968l2.86 2.86A4.977 4.977 0 0 1 12 7c1.02 0 1.967.305 2.757.828ZM12 23C5.925 23 1 18.075 1 12S5.925 1 12 1s11 4.925 11 11-4.925 11-11 11Zm0-8a3 3 0 1 0 0-6 3 3 0 0 0 0 6Z"/></symbol><symbol id="social-linux" viewBox="0 0 16 16"><path d="M6.861 3.669c-.172.018-.112.177-.208.18-.095.004-.075-.202.208-.18Zm.52.026c.167-.043.168.126.26.095.088-.03-.002-.214-.26-.095Zm5.775 11.051c-.518.26-1.193.839-1.445 1.078-.186.178-.964.266-1.396.044-.512-.264-.24-.675-1.031-.695a32.6 32.6 0 0 0-1.159-.008c-.339.005-.677.015-1.023.033-1.187.01-1.303.787-2.06.758-.518-.019-1.17-.427-2.293-.662-.788-.164-1.545-.203-1.707-.552-.162-.348.2-.738.223-1.085.03-.452-.342-1.066-.067-1.304.227-.198.724-.053 1.045-.232.34-.19.477-.347.477-.762.126.424-.005.776-.287.948-.168.101-.48.155-.735.129-.203-.02-.33.014-.39.09-.08.101-.054.277.045.51.1.235.22.383.203.67-.016.285-.33.625-.28.866.019.093.11.17.328.231.362.102 1.007.194 1.644.35.708.173 1.438.5 1.893.437 1.358-.189.583-1.645.363-1.992-1.146-1.804-1.904-2.986-2.51-2.517-.16.122-.165-.307-.158-.472.026-.593.327-.8.506-1.262.335-.865.597-1.855 1.115-2.367.386-.494.988-1.307 1.103-1.736-.097-.933-.126-1.915-.141-2.775-.015-.914.13-1.717 1.163-2.278.252-.137.58-.187.926-.19.62-.008 1.305.166 1.742.49.696.516 1.134 1.616 1.083 2.406-.041.609.069 1.247.264 1.902.233.78.603 1.327 1.19 1.95.707.75 1.258 2.228 1.413 3.164.146.875-.044 1.416-.236 1.443-.286.042-.464.95-1.36.908-.57-.028-.627-.365-.785-.653-.255-.46-.513-.316-.617.164-.054.245-.015.596.064.87.16.56.105 1.091.01 1.735-.184 1.237.863 1.47 1.57.883.696-.58.845-.673 1.727-.974 1.33-.455.883-.858.168-1.098-.641-.216-.667-1.299-.438-1.503.051 1.163.657 1.332.914 1.49 1.1.683-.416 1.243-1.061 1.568Zm-2.961-3.407c.12-.144.264-.16.452-.163.028-.71 1.132-.657 1.494-.36 0-.165-.347-.312-.486-.382.24-.8.128-1.122-.032-1.878-.121-.577-.647-1.354-1.059-1.597.104.091.302.356.51.745.36.669.714 1.657.478 2.487-.09.317-.299.357-.441.373-.633.066-.261-.748-.524-1.87-.293-1.246-.593-1.34-.668-1.437-.363-1.622-.766-1.46-.88-2.072-.103-.542.472-.99-.31-1.142-.238-.047-.579-.288-.715-.305-.134-.019-.2-.895.294-.93.493-.037.588.558.49.792-.14.231.011.318.255.242.2-.061.071-.581.119-.658-.129-.745-.44-.853-.764-.915-1.23.094-.677 1.456-.802 1.325-.174-.185-.698-.01-.695-.129.011-.694-.222-1.097-.542-1.105-.357-.01-.504.49-.526.77-.02.271.16.834.293.791.087-.028.235-.203.076-.202-.082.001-.206-.191-.219-.425-.012-.234.074-.469.377-.457.356.014.352.71.313.736-.113.08-.26.232-.275.258-.113.19-.34.236-.424.32-.158.158-.19.337-.071.406.407.233.274.493.844.517a2.59 2.59 0 0 0 .91-.136c.198-.06.835-.195.969-.43.058-.099.131-.102.18-.074.086.05.104.215-.116.274-.315.086-.633.253-.912.365-.278.113-.367.156-.629.204-.591.106-1.027-.213-.63.17.13.128.257.208.597.194.745-.03 1.58-.924 1.662-.523.017.082-.236.193-.434.291-.698.344-1.19 1.022-1.636.787-.4-.21-.798-1.203-.792-.758.012.685-.903 1.295-.482 2.076-.273.074-.894 1.385-.984 2.068-.048.387.037.873-.055 1.144-.135.393-.746-.374-.55-1.313.034-.165.005-.2-.04-.12-.248.439-.112 1.051.084 1.481.086.186.287.268.435.434.32.358 1.546 1.267 1.768 1.484a.55.55 0 0 1-.379.93c.293.553.58.606.575 1.51.332-.178.198-.568.06-.825-.098-.175-.224-.255-.197-.296.02-.031.192-.178.294-.063.302.339.873.4 1.486.323.613-.078 1.27-.292 1.573-.78.142-.23.245-.31.311-.27.065.04.094.203.087.463-.008.288-.129.588-.204.828-.085.271-.11.464.154.474.078-.502.217-.996.256-1.495.045-.568-.366-1.625.077-2.152ZM6.442 3.274c-.02.112-.013.182.065.182.012 0 .026-.002.03-.03.038-.223-.077-.385-.124-.398-.11-.027-.095.129-.039.116.035-.006.081.05.068.13Zm2.02-.305c-.111.01-.079.066-.023.082.073.022.141.146.157.28.001.013.094-.019.094-.049.006-.215-.178-.317-.227-.313Z"/></symbol><symbol id="ui-tip" viewBox="0 0 16 16"><path d="M5.333 15.167c0 .441.359.833.834.833h3.666a.836.836 0 0 0 .834-.833v-.75H5.333v.75ZM8 0C4.68 0 2 2.496 2 5.583c0 1.904 1.004 3.592 2.558 4.609V12c0 .442.388.8.859.8h5.162c.475 0 .858-.358.858-.8v-1.808C12.996 9.175 14 7.487 14 5.583 14 2.496 11.32 0 8 0Z"/></symbol><symbol id="social-linkedin" viewBox="0 0 16 16"><path d="M14.72 0H1.367C.637 0 0 .525 0 1.246V14.63C0 15.354.638 16 1.367 16h13.35C15.45 16 16 15.35 16 14.629V1.246C16.004.526 15.45 0 14.72 0ZM4.96 13.337H2.667V6.21H4.96v7.127Zm-1.067-8.21h-.017c-.734 0-1.209-.547-1.209-1.23 0-.696.488-1.23 1.238-1.23s1.209.53 1.225 1.23c0 .683-.475 1.23-1.237 1.23Zm9.444 8.21h-2.292V9.44c0-.934-.334-1.571-1.163-1.571-.634 0-1.009.429-1.176.846-.062.15-.079.354-.079.562v4.06H6.335V6.21h2.292v.992c.334-.475.855-1.159 2.067-1.159 1.505 0 2.643.992 2.643 3.13v4.164Z"/></symbol><symbol id="ui-website" viewBox="0 0 16 16"><path d="M8 0c4.4 0 8 3.6 8 8s-3.6 8-8 8-8-3.6-8-8 3.6-8 8-8Zm-.08 11.68c0-.16-.08-.24-.24-.32-.48-.16-.96-.16-1.36-.56-.08-.16-.08-.32-.16-.48-.16-.16-.56-.24-.8-.32h-1.6c-.24-.08-.4-.4-.56-.64 0-.08 0-.24-.16-.24-.16-.08-.32.08-.48 0-.08-.08-.08-.16-.08-.24 0-.24.16-.48.32-.64.24-.16.48.08.72.08.08 0 .08 0 .16.08.24.08.32.4.32.64v.16c0 .08.08.08.16.08.08-.4.08-.8.16-1.2 0-.48.48-.96.88-1.12.16-.08.24.08.4 0 .48-.16 1.68-.64 1.44-1.28-.16-.56-.64-1.12-1.28-1.04-.16.08-.24.16-.4.24-.24.16-.72.64-.96.64-.4-.08-.4-.64-.32-.88.08-.32.8-1.36 1.28-1.2l.32.32c.16.08.4.08.64.08.08 0 .16 0 .24-.08.08-.08.08-.08.08-.16 0-.24-.24-.48-.4-.64-.16-.16-.4-.32-.64-.4-.8-.24-2.08.08-2.72.64-.64.56-1.12 1.52-1.44 2.32-.16.48-.32 1.12-.4 1.68-.08.4-.16.72.08 1.12.24.48.72.96 1.2 1.28.32.24.96.24 1.28.64.24.32.16.72.16 1.12 0 .48.32.88.48 1.28.08.24.16.56.24.8 0 .08.08.56.08.64.48.24.88.48 1.44.64.08 0 .4-.48.4-.56.24-.24.4-.56.64-.72.16-.08.32-.16.48-.32.16-.16.24-.48.32-.72.08-.16.16-.48.08-.72Zm.16-7.36c.08 0 .16-.08.32-.16.24-.16.48-.4.72-.56.24-.16.48-.4.64-.56.24-.16.4-.48.48-.72.08-.16.32-.48.24-.72-.08-.16-.48-.24-.64-.32-.64-.16-1.2-.24-1.84-.24-.24 0-.56.08-.64.32-.08.4.24.32.56.4 0 0 .08.64.08.72.08.4-.16.64-.16 1.04 0 .24 0 .64.16.8h.08Zm6.72 5.6c.08-.16.08-.4.16-.56.08-.4.08-.8.08-1.2 0-.8-.08-1.6-.32-2.32-.16-.24-.24-.48-.32-.72-.16-.4-.4-.8-.72-1.12-.32-.4-.72-1.52-1.44-1.2-.24.08-.4.4-.56.56l-.48.72c-.08.08-.16.24-.08.32 0 .08.08.08.16.08.16.08.24.08.4.16.08 0 .16.08.08.16 0 0 0 .08-.08.08-.4.4-.8.72-1.2 1.12-.08.08-.16.24-.16.32 0 .08.08.08.08.16s-.08.08-.16.16c-.16.08-.32.16-.4.24-.08.16 0 .4-.08.56-.08.4-.32.72-.48 1.12-.16.24-.24.48-.4.72 0 .32-.08.56.08.8.4.56 1.12.24 1.68.48.16.08.32.08.4.24.24.24.24.64.32.88.08.32.16.64.32.96.08.4.24.8.32 1.12.72-.56 1.36-1.2 1.84-2 .48-.56.72-1.2.96-1.84Z"/></symbol><symbol id="ui-expand" viewBox="0 0 16 16"><path d="m8.875 5.904 2.756-2.752L9.48 1H15v5.521L12.848 4.37l-2.752 2.756-1.221-1.22Zm0 4.192 1.22-1.221 2.753 2.756L15 9.48V15H9.479l2.152-2.152-2.756-2.752Zm-1.75 0-2.756 2.752L6.52 15H1V9.479l2.152 2.152 2.752-2.756 1.221 1.22Zm0-4.192-1.22 1.221-2.753-2.756L1 6.52V1h5.521L4.37 3.152l2.756 2.752Z"/></symbol><symbol id="ui-delete" viewBox="0 0 16 16"><path d="M11.66 2.91h2.908a.727.727 0 1 1 0 1.454h-.727v9.454A2.182 2.182 0 0 1 11.659 16H4.386a2.182 2.182 0 0 1-2.181-2.182V4.364h-.728a.727.727 0 1 1 0-1.455h2.91v-.727C4.386.977 5.362 0 6.567 0h2.91c1.204 0 2.181.977 2.181 2.182v.727Zm-1.455 0v-.728a.727.727 0 0 0-.728-.727H6.568a.727.727 0 0 0-.727.727v.727h4.364ZM5.84 7.272v4.363a.727.727 0 1 0 1.454 0V7.273a.727.727 0 0 0-1.454 0Zm2.909 0v4.363a.727.727 0 1 0 1.455 0V7.273a.727.727 0 0 0-1.455 0Z"/></symbol><symbol id="menu-submission-guidelines" viewBox="0 0 24 24"><path d="M17.458 9.39a1.004 1.004 0 0 1-.02.009L13 11.618v9.769l7.445-3.723A1 1 0 0 0 21 16.77V7.618l-3.542 1.771ZM9.24 3.501 17 7.382l2.759-1.38-7.315-3.657a.999.999 0 0 0-.887 0L9.241 3.501ZM7.005 4.621 4.241 6.002 12 9.882 14.764 8.5 7.005 4.62Zm-.536-1.968c.054-.034.111-.063.17-.086L10.665.554a3 3 0 0 1 2.67 0l8 4A3 3 0 0 1 23 7.24v9.53a3 3 0 0 1-1.663 2.684l-8 4a3 3 0 0 1-2.684 0L2.65 19.453A2.997 2.997 0 0 1 1 16.76V7.24a3 3 0 0 1 1.663-2.684l3.806-1.903ZM11 21.392v-9.774l-8-4v9.149c-.003.38.21.729.547.899L11 21.392Z"/></symbol><symbol id="ui-sentiment-happy" viewBox="0 0 16 16"><path d="M7.991.38C3.786.38.38 3.793.38 7.999c0 4.206 3.406 7.62 7.611 7.62 4.214 0 7.627-3.414 7.627-7.62 0-4.206-3.413-7.619-7.627-7.619ZM8 14.094A6.094 6.094 0 0 1 1.904 8a6.094 6.094 0 0 1 6.095-6.095 6.094 6.094 0 0 1 6.095 6.095A6.094 6.094 0 0 1 8 14.094Zm2.667-6.857c.632 0 1.143-.51 1.143-1.143 0-.632-.51-1.143-1.143-1.143s-1.143.51-1.143 1.143.51 1.143 1.143 1.143Zm-5.334 0c.633 0 1.143-.51 1.143-1.143 0-.632-.51-1.143-1.143-1.143-.632 0-1.142.51-1.142 1.143s.51 1.143 1.142 1.143ZM8 12.19a4.188 4.188 0 0 0 3.893-2.667H4.106a4.188 4.188 0 0 0 3.893 2.667Z"/></symbol><symbol id="ui-credit-card" viewBox="0 0 16 16"><path d="M14 2a2 2 0 0 1 2 2v8a2 2 0 0 1-2 2H2a2 2 0 0 1-2-2V4a2 2 0 0 1 2-2h12Zm0 6H2v4h12V8ZM5 9a1 1 0 1 1 0 2H4a1 1 0 0 1 0-2h1Zm9-5H2v2h12V4Z"/></symbol><symbol id="editor-bold" viewBox="0 0 16 16"><path d="M7.336 12.883c.385.167.75.25 1.094.25 1.958 0 2.937-.872 2.937-2.617 0-.594-.107-1.063-.32-1.406a2.555 2.555 0 0 0-1.007-.941 2.317 2.317 0 0 0-.629-.195 5.589 5.589 0 0 0-.656-.082c-.19-.01-.436-.016-.738-.016-.38 0-.643.026-.789.078 0 .276-.001.69-.004 1.242s-.004.963-.004 1.234l-.008.527c-.005.31-.007.561-.004.754.003.193.014.41.035.652.02.242.052.415.094.52h-.001Zm-.109-5.828c.219.037.503.055.852.055.427 0 .8-.034 1.117-.102.317-.068.604-.184.859-.348.255-.164.45-.397.582-.699.133-.302.199-.672.199-1.109 0-.365-.076-.684-.227-.957a1.668 1.668 0 0 0-.617-.641 3.037 3.037 0 0 0-.844-.34 4.141 4.141 0 0 0-.969-.109c-.26 0-.6.034-1.016.102 0 .26.01.654.031 1.18.02.526.031.922.031 1.187 0 .14-.001.349-.004.625s-.004.482-.004.617c0 .24.003.419.008.539h.002ZM3 14l.016-.734c.078-.02.3-.062.664-.125.365-.063.64-.133.828-.211a1.317 1.317 0 0 0 .164-.473c.015-.097.03-.181.043-.254.013-.073.021-.17.023-.293l.004-.266v-.512c0-5.115-.057-7.784-.172-8.008-.02-.041-.078-.079-.172-.113a2.038 2.038 0 0 0-.348-.086 6.905 6.905 0 0 0-.387-.055c-.12-.013-.246-.025-.379-.035a3.016 3.016 0 0 1-.238-.023l-.031-.648c.51-.01 1.396-.04 2.656-.09C6.931 2.024 7.902 2 8.585 2c.12 0 .298.001.535.004.237.003.412.004.527.004.365 0 .72.034 1.066.102.346.068.68.177 1.004.328.323.15.605.336.844.555.24.22.432.491.578.816.146.325.219.683.219 1.074 0 .27-.043.52-.129.746a2.116 2.116 0 0 1-.305.563 2.3 2.3 0 0 1-.504.449 5.58 5.58 0 0 1-.57.352c-.161.084-.38.188-.656.312.802.182 1.47.531 2.004 1.047.534.516.801 1.162.801 1.937 0 .52-.091.988-.273 1.402a2.854 2.854 0 0 1-.73 1.02 4.106 4.106 0 0 1-1.078.668c-.414.18-.84.306-1.277.379-.437.073-.896.11-1.375.109-.23 0-.573-.008-1.031-.023a33.695 33.695 0 0 0-1.031-.023c-.552 0-1.351.029-2.398.086-1.047.057-1.648.089-1.805.094L3 14Z"/></symbol><symbol id="ui-chevron-down" viewBox="0 0 16 16"><path d="M8 8.586 4.707 5.293a1 1 0 0 0-1.414 1.414l4 4a1 1 0 0 0 1.414 0l4-4a1 1 0 1 0-1.414-1.414L8 8.586Z"/></symbol><symbol id="ui-image-broken" viewBox="0 0 16 16"><path d="M10.671 14.29H1.875A.878.878 0 0 1 1 13.407V3.175c0-.488.387-.884.875-.884H2.1l-.507-.71L2.407 1l10 14-.814.581-.922-1.29Zm-4.97-6.958L2 11.797v1.094c0 .22.18.4.4.4h7.557L5.701 7.332Zm7.814 6.959-.715-1h.8a.4.4 0 0 0 .4-.4v-1.088L10.903 8.47a.537.537 0 0 0-.4-.194c-.16 0-.272.075-.4.178l-.473.4L4.943 2.29h9.182c.488 0 .875.396.875.884v10.231a.878.878 0 0 1-.875.885h-.61Zm-2.015-7a1.5 1.5 0 1 0 0-3.001 1.5 1.5 0 0 0 0 3Z"/></symbol><symbol id="icon-audio" viewBox="0 0 24 24"><path d="M19.777 4.223c4.294 4.295 4.294 11.259 0 15.554a1 1 0 1 1-1.414-1.414 9 9 0 0 0 0-12.726 1 1 0 1 1 1.414-1.414Zm-9.402-.004A1 1 0 0 1 12 5v14a1 1 0 0 1-1.625.78L5.65 16H2a1 1 0 0 1-1-1V9a1 1 0 0 1 1-1h3.65ZM10 7.081l-3.375 2.7A1 1 0 0 1 6 10H3v4h3a1 1 0 0 1 .625.22L10 16.92V7.08Zm6.247.672a6 6 0 0 1 0 8.484 1 1 0 1 1-1.414-1.414 4 4 0 0 0 0-5.656 1 1 0 1 1 1.414-1.414Z"/></symbol><symbol id="social-quixel" viewBox="0 0 16 16"><path fill-rule="evenodd" d="M11.418 9.985v-.206c0-1.216 0-2.432.002-3.648 0-.102-.027-.161-.118-.214A600.376 600.376 0 0 1 8.067 4.05c-.09-.052-.154-.053-.244 0a596.907 596.907 0 0 1-3.236 1.867c-.09.052-.12.11-.12.213.004 1.24.004 2.482 0 3.723 0 .104.034.16.123.211 1.08.62 2.159 1.242 3.235 1.868.092.054.156.047.244-.004 1.076-.625 2.156-1.245 3.233-1.87.082-.049.138-.054.226-.004 1.071.625 2.146 1.245 3.221 1.861.098.056.14.112.14.23-.005 1.232-.003 2.463-.003 3.694V16l-.156-.083c-1.052-.608-2.106-1.213-3.155-1.827-.122-.071-.206-.063-.322.004-1.059.617-2.121 1.227-3.18 1.843-.094.055-.161.056-.256.001-2.224-1.288-4.45-2.573-6.678-3.855-.106-.061-.14-.128-.139-.246.003-2.567.003-5.135 0-7.702 0-.114.031-.176.133-.234A2795.24 2795.24 0 0 0 7.823.038c.09-.052.155-.05.243.001a3344.8 3344.8 0 0 0 6.69 3.863c.094.054.133.109.133.22-.005 1.246-.004 2.492-.003 3.738 0 .078-.005.138-.087.186-1.098.629-2.193 1.262-3.289 1.894-.02.012-.043.021-.092.045"/></symbol><symbol id="ui-arrow-down" viewBox="0 0 16 16"><path d="M9 11.586V2a1 1 0 1 0-2 0v9.586L4.707 9.293a1 1 0 1 0-1.414 1.414l4 4a1 1 0 0 0 1.414 0l4-4a1 1 0 1 0-1.414-1.414L9 11.586Z"/></symbol><symbol id="ui-locked" viewBox="0 0 16 16"><path d="M2 9v5h12V9H2Zm1-2V6c0-3.843 1.726-6 5-6s5 2.157 5 6v1h2a1 1 0 0 1 1 1v7a1 1 0 0 1-1 1H1a1 1 0 0 1-1-1V8a1 1 0 0 1 1-1h2Zm2 0h6V6c0-2.824-.94-4-3-4S5 3.176 5 6v1Z"/></symbol><symbol id="ui-filter" viewBox="0 0 16 16"><path d="M2 2h12L9 9v3l-2 2V9z"/></symbol><symbol id="ui-plus" viewBox="0 0 16 16"><path fill-rule="evenodd" d="M9 7h2.5a.5.5 0 0 1 .5.5v1a.5.5 0 0 1-.5.5H9v2.5a.5.5 0 0 1-.5.5h-1a.5.5 0 0 1-.5-.5V9H4.5a.5.5 0 0 1-.5-.5v-1a.5.5 0 0 1 .5-.5H7V4.5a.5.5 0 0 1 .5-.5h1a.5.5 0 0 1 .5.5V7Z"/></symbol><symbol id="ui-check-circled" viewBox="0 0 16 16"><path fill-rule="evenodd" d="M8 16A8 8 0 1 1 8 0a8 8 0 0 1 0 16Zm4.313-10.848-1.152-.902a.205.205 0 0 0-.13-.05c-.05 0-.096.02-.132.052l-4.19 5.345S5.06 8.024 5.014 7.978c-.046-.046-.107-.123-.2-.123-.092 0-.134.065-.182.113l-.913.954c-.016.018-.027.029-.042.043a.204.204 0 0 0-.042.12.2.2 0 0 0 .042.118l.06.054s2.922 2.787 2.97 2.835c.049.048.107.108.193.108.084 0 .154-.09.194-.13l5.227-6.664a.205.205 0 0 0 .042-.12.213.213 0 0 0-.05-.134Z"/></symbol><symbol id="ui-external-link" viewBox="0 0 16 16"><path d="M12.586 2H11a1 1 0 0 1 0-2h4a1 1 0 0 1 1 1v4a1 1 0 0 1-2 0V3.414L8.707 8.707a1 1 0 0 1-1.414-1.414L12.586 2ZM2 14h10V9a1 1 0 0 1 2 0v6a1 1 0 0 1-1 1H1a1 1 0 0 1-1-1V3a1 1 0 0 1 1-1h7a1 1 0 1 1 0 2H2v10Z"/></symbol><symbol id="ui-sentiment-neutral" viewBox="0 0 16 16"><path d="M7.992.38C3.786.38.38 3.794.38 8c0 4.206 3.406 7.62 7.612 7.62 4.214 0 7.628-3.414 7.628-7.62 0-4.206-3.414-7.62-7.628-7.62ZM8 14.096A6.094 6.094 0 0 1 1.904 8 6.094 6.094 0 0 1 8 1.904 6.094 6.094 0 0 1 14.096 8 6.094 6.094 0 0 1 8 14.096Zm2.667-6.858a1.143 1.143 0 1 0 0-2.286 1.143 1.143 0 0 0 0 2.286Zm-5.334 0a1.143 1.143 0 1 0 0-2.286 1.143 1.143 0 0 0 0 2.286ZM8 11.048a2.896 2.896 0 0 1-1.494-.396c-.091.106-.655.747-.77.876a4.183 4.183 0 0 0 4.534-.008c-.738-.83-.007-.015-.769-.876-.45.267-.945.404-1.501.404Z"/></symbol><symbol id="navbar-download" viewBox="0 0 24 24"><path d="m13 12.586 2.293-2.293a1 1 0 0 1 1.414 1.414l-4 4a1 1 0 0 1-1.414 0l-4-4a1 1 0 0 1 1.414-1.414L11 12.586V3a1 1 0 0 1 2 0v9.586ZM4 20h16v-4a1 1 0 0 1 2 0v5a1 1 0 0 1-1 1H3a1 1 0 0 1-1-1v-5a1 1 0 0 1 2 0v4Z"/></symbol><symbol id="editor-superscript" viewBox="0 0 16 16"><path d="M9.008 11.695V13H7.071l-1.242-1.969-.187-.328a.388.388 0 0 1-.086-.164h-.023l-.07.164a4.295 4.295 0 0 1-.195.344L4.057 13H2.041v-1.305h1L4.58 9.422 3.135 7.297h-1.07V5.984h2.156l1.086 1.781c.01.02.07.13.18.328.041.047.07.101.086.164h.023a.701.701 0 0 1 .086-.164l.195-.328 1.094-1.781h2.008v1.313h-.977L6.564 9.383l1.594 2.313h.852l-.002-.001Zm4.976-5.304V8H9.968l-.023-.211a2.664 2.664 0 0 1-.031-.359c0-.333.068-.638.203-.914s.305-.501.508-.676a10.077 10.077 0 0 1 1.312-.934c.203-.12.373-.26.508-.422a.772.772 0 0 0 .203-.5.606.606 0 0 0-.23-.488.835.835 0 0 0-.551-.191c-.265 0-.518.102-.758.305a2.031 2.031 0 0 0-.281.297l-.82-.719c.135-.193.3-.365.492-.516a2.318 2.318 0 0 1 1.469-.508c.573 0 1.036.155 1.391.465.355.31.532.723.531 1.238 0 .292-.064.56-.191.805a1.815 1.815 0 0 1-.484.598 9.093 9.093 0 0 1-.637.457c-.23.15-.443.282-.641.395a2.11 2.11 0 0 0-.512.402.832.832 0 0 0-.238.492H13v-.625h.984Z"/></symbol><symbol id="ui-arrow-left" viewBox="0 0 16 16"><path d="M4.414 9H14a1 1 0 0 0 0-2H4.414l2.293-2.293a1 1 0 0 0-1.414-1.414l-4 4a1 1 0 0 0 0 1.414l4 4a1 1 0 1 0 1.414-1.414L4.414 9Z"/></symbol><symbol id="icon-rendering" viewBox="0 0 24 24"><path d="M12 1c6.075 0 11 4.925 11 11s-4.925 11-11 11S1 18.075 1 12 5.925 1 12 1Zm8.997 10.752c-3.934 2.214-7.494 3.39-10.658 3.506.395 1.904 1.136 3.81 2.224 5.724A8.999 8.999 0 0 0 21 12ZM3.08 13.209l.022.155a9.008 9.008 0 0 0 7.107 7.458c-.943-1.877-1.584-3.76-1.924-5.644a11.324 11.324 0 0 1-5.205-1.969Zm9.483-10.192-.114.203c-1.869 3.36-2.668 6.7-2.4 10.044 3.04-.047 6.574-1.251 10.633-3.639a9.006 9.006 0 0 0-8.12-6.608Zm-2.354.16-.024.006a9.008 9.008 0 0 0-7.088 7.484c1.44 1.311 3.083 2.13 4.938 2.448-.21-3.317.515-6.635 2.174-9.938Z"/></symbol><symbol id="ui-chatboxes" viewBox="0 0 16 16"><path d="M1.846 5.885v3.877c0 1.273 1.146 2.276 2.48 2.276h4.466c.396 0 .573.104.673.174l.997.711c-.174.792-1.112 1.23-1.997 1.23H5.012c-.304 0-.435.062-.508.116L2.462 16v-1.846h-.627c-1.012 0-1.835-.6-1.835-1.562V7.635c0-.962.765-1.75 1.777-1.75h.07ZM13.576 0C14.917 0 16 1.03 16 2.3v6.473c0 1.27-1.085 2.304-2.423 2.304h-.654v2.461l-2.873-2.3c-.096-.073-.273-.161-.673-.161H5.488c-1.334 0-2.411-1.035-2.411-2.308V2.3c0-1.27.808-2.3 2.142-2.3Z"/></symbol><symbol id="editor-align-left" viewBox="0 0 16 16"><path d="M1 11.5v1c0 .135.05.253.148.352.099.1.216.149.352.148h13c.135 0 .253-.05.352-.148A.476.476 0 0 0 15 12.5v-1a.483.483 0 0 0-.148-.352A.476.476 0 0 0 14.5 11h-13a.483.483 0 0 0-.352.148A.476.476 0 0 0 1 11.5Zm0-3v1c0 .135.05.253.148.352.099.1.216.149.352.148h10c.135 0 .253-.05.352-.148A.476.476 0 0 0 12 9.5v-1a.483.483 0 0 0-.148-.352A.476.476 0 0 0 11.5 8h-10a.483.483 0 0 0-.352.148A.476.476 0 0 0 1 8.5Zm0-3v1c0 .135.05.253.148.352.099.1.216.149.352.148h12c.135 0 .253-.05.352-.148A.476.476 0 0 0 14 6.5v-1a.483.483 0 0 0-.148-.352A.476.476 0 0 0 13.5 5h-12a.483.483 0 0 0-.352.148A.476.476 0 0 0 1 5.5Zm0-3v1c0 .135.05.253.148.352.099.1.216.149.352.148h9c.135 0 .253-.05.352-.148A.476.476 0 0 0 11 3.5v-1a.483.483 0 0 0-.148-.352A.476.476 0 0 0 10.5 2h-9a.483.483 0 0 0-.352.148A.476.476 0 0 0 1 2.5Z"/></symbol><symbol id="ui-sentiment-sad" viewBox="0 0 16 16"><path d="M7.991.38C3.786.38.38 3.793.38 7.999c0 4.206 3.406 7.62 7.611 7.62 4.214 0 7.627-3.414 7.627-7.62 0-4.206-3.413-7.619-7.627-7.619ZM8 14.094A6.094 6.094 0 0 1 1.904 8a6.094 6.094 0 0 1 6.095-6.095 6.094 6.094 0 0 1 6.095 6.095A6.094 6.094 0 0 1 8 14.094Zm2.667-6.857c.632 0 1.143-.51 1.143-1.143 0-.632-.51-1.143-1.143-1.143s-1.143.51-1.143 1.143.51 1.143 1.143 1.143Zm-5.334 0c.633 0 1.143-.51 1.143-1.143 0-.632-.51-1.143-1.143-1.143-.632 0-1.142.51-1.142 1.143s.51 1.143 1.142 1.143ZM8 9.523a4.188 4.188 0 0 0-3.893 2.667h7.786A4.188 4.188 0 0 0 8 9.523Z"/></symbol><symbol id="menu-github" viewBox="0 0 24 24"><path d="M8.713 19.042c-2.152.646-3.021.304-4.097-1.028-.072-.089-.37-.468-.45-.567-.644-.795-1.158-1.226-1.923-1.417a1 1 0 0 0-.486 1.94c.23.058.462.252.853.735.07.085.368.464.45.565 1.554 1.925 3.235 2.585 6.227 1.688a1 1 0 0 0-.574-1.916ZM22.5 9.52a6.44 6.44 0 0 0-1.379-3.981 6.07 6.07 0 0 0-.292-3.933 1 1 0 0 0-.635-.565 1.502 1.502 0 0 0-.21-.044c-.939-.136-2.317.235-4.163 1.406a14.38 14.38 0 0 0-6.642 0C7.333 1.232 5.955.86 5.015.997a1.502 1.502 0 0 0-.21.044 1 1 0 0 0-.634.565 6.07 6.07 0 0 0-.292 3.933A6.44 6.44 0 0 0 2.5 9.555c0 4.612 2.06 6.866 5.8 7.725a4.37 4.37 0 0 0-.298 1.92L8 23a1 1 0 0 0 2 0v-3.87c-.05-.741.19-1.401.659-1.885a1 1 0 0 0-.596-1.687C6.27 15.086 4.5 13.599 4.5 9.55a4.443 4.443 0 0 1 1.224-3.09 1 1 0 0 0 .213-1.04 4.07 4.07 0 0 1-.14-2.392c.07.015.147.035.231.06.645.185 1.448.574 2.415 1.223a1 1 0 0 0 .819.134 12.38 12.38 0 0 1 6.476 0 1 1 0 0 0 .819-.134c.967-.649 1.77-1.038 2.415-1.224.084-.024.16-.044.23-.06a4.07 4.07 0 0 1-.139 2.393 1 1 0 0 0 .213 1.04A4.44 4.44 0 0 1 20.5 9.52c0 4.088-1.782 5.586-5.55 6.006a1 1 0 0 0-.608 1.69 2.37 2.37 0 0 1 .661 1.836L15 23a1 1 0 0 0 2 0v-3.87a4.154 4.154 0 0 0-.29-1.867c3.72-.825 5.79-3.1 5.79-7.743Z"/></symbol><symbol id="editor-align-center" viewBox="0 0 16 16"><path d="M15 11.5v1c0 .135-.05.253-.148.352A.476.476 0 0 1 14.5 13h-13a.483.483 0 0 1-.352-.148A.476.476 0 0 1 1 12.5v-1c0-.135.05-.253.148-.352A.476.476 0 0 1 1.5 11h13c.135 0 .253.05.352.148.1.099.149.216.148.352Zm-3-3v1c0 .135-.05.253-.148.352A.476.476 0 0 1 11.5 10h-7a.483.483 0 0 1-.352-.148A.476.476 0 0 1 4 9.5v-1c0-.135.05-.253.148-.352A.476.476 0 0 1 4.5 8h7c.135 0 .253.05.352.148.1.099.149.216.148.352Zm2-3v1c0 .135-.05.253-.148.352A.476.476 0 0 1 13.5 7h-11a.483.483 0 0 1-.352-.148A.476.476 0 0 1 2 6.5v-1c0-.135.05-.253.148-.352A.476.476 0 0 1 2.5 5h11c.135 0 .253.05.352.148.1.099.149.216.148.352Zm-3-3v1c0 .135-.05.253-.148.352A.476.476 0 0 1 10.5 4h-5a.483.483 0 0 1-.352-.148A.476.476 0 0 1 5 3.5v-1c0-.135.05-.253.148-.352A.476.476 0 0 1 5.5 2h5c.135 0 .253.05.352.148.1.099.149.216.148.352Z"/></symbol><symbol id="menu-news" viewBox="0 0 24 24"><path d="M17 21V3.025c0-.781-.219-1-1-1H3c-.781 0-1 .219-1 1v18c0 .781.219 1 1 1h14.124A4.028 4.028 0 0 1 17 21Zm2-11.888-.111-.087H21c1.886 0 3 1.114 3 3v9c0 1.886-1.114 3-3 3H3c-1.886 0-3-1.114-3-3v-18c0-1.886 1.114-3 3-3h13c1.886 0 3 1.114 3 3v6.087Zm2 12.913c.781 0 1-.219 1-1v-9c0-.781-.219-1-1-1h-2V21c0 .78.198 1.014.89 1.025H21Zm-1.012 0 .024 2c-1.528.019-2.55-.711-2.888-2h2.864ZM6 7a1 1 0 1 1 0-2h7a1 1 0 0 1 0 2H6Zm0 5a1 1 0 0 1 0-2h7a1 1 0 0 1 0 2H6Zm0 5a1 1 0 0 1 0-2h7a1 1 0 0 1 0 2H6Z"/></symbol><symbol id="ui-location" viewBox="0 0 16 16"><path d="M7.714 0C4.571 0 2 2.52 2 5.6 2 9.8 7.714 16 7.714 16S13.43 9.8 13.43 5.6c0-3.08-2.572-5.6-5.715-5.6Zm0 7.6c-1.142 0-2.04-.88-2.04-2s.898-2 2.04-2c1.143 0 2.041.88 2.041 2s-.898 2-2.04 2Z"/></symbol><symbol id="menu-forum-archive" viewBox="0 0 24 24"><path d="M5 12a1 1 0 0 0-1 1v7a1 1 0 0 0 1 1h14a1 1 0 0 0 1-1v-7a1 1 0 0 0-1-1H5Zm1-2V7a6 6 0 1 1 12 0v3h1a3 3 0 0 1 3 3v7a3 3 0 0 1-3 3H5a3 3 0 0 1-3-3v-7a3 3 0 0 1 3-3h1Zm2 0h8V7a4 4 0 1 0-8 0v3Z"/></symbol><symbol id="navbar-search" viewBox="0 0 24 24"><path d="M15.641 17.013a9.054 9.054 0 0 0 1.372-1.372c.07.042.134.092.194.152l4 4a1 1 0 0 1-1.414 1.414l-4-4c-.06-.06-.11-.125-.152-.194ZM10 17.5a7.5 7.5 0 1 1 0-15 7.5 7.5 0 0 1 0 15Zm0-2a5.5 5.5 0 1 0 0-11 5.5 5.5 0 0 0 0 11Z"/></symbol><symbol id="ui-reports" viewBox="0 0 16 16"><path d="M12 9a3 3 0 1 1 0 6 3 3 0 0 1 0-6Zm-2-8h4.02c.023 0 .046.002.07.004L14 1a1.008 1.008 0 0 1 .595.196c.04.03.077.061.112.097l-.09-.08a1.006 1.006 0 0 1 .376.67l.003.03.003.055L15 2v4a1 1 0 0 1-1.993.117L13 6V4.414L2.707 14.707a1 1 0 0 1-1.32.083l-.094-.083a1 1 0 0 1 0-1.414L11.584 3H10a1 1 0 0 1-.117-1.993L10 1h4Zm2 10a1 1 0 1 0 0 2 1 1 0 0 0 0-2ZM4 1a3 3 0 1 1 0 6 3 3 0 0 1 0-6Zm0 2a1 1 0 1 0 0 2 1 1 0 0 0 0-2Z"/></symbol><symbol id="ui-logout" viewBox="0 0 16 16"><path d="M2 14h3a1 1 0 0 1 0 2H1a1 1 0 0 1-1-1V1a1 1 0 0 1 1-1h4a1 1 0 1 1 0 2H2v12Z"/><path d="M12.586 9H5a1 1 0 1 1 0-2h7.586l-1.293-1.293a1 1 0 1 1 1.414-1.414l3 3a1 1 0 0 1 0 1.414l-3 3a1 1 0 0 1-1.414-1.414L12.586 9Z"/></symbol><symbol id="navbar-cart" viewBox="0 0 24 24"><path d="M4.22 4H2a1 1 0 1 1 0-2h3a1 1 0 0 1 .97.757L8.78 14h9.5l2.333-7H10a1 1 0 1 1 0-2h12a1 1 0 0 1 .949 1.316l-3 9A1 1 0 0 1 19 16H8a1 1 0 0 1-.97-.757L4.22 4ZM8 22a2 2 0 1 1 0-4 2 2 0 0 1 0 4Zm10 0a2 2 0 1 1 0-4 2 2 0 0 1 0 4Z"/></symbol><symbol id="ui-chevron-up" viewBox="0 0 16 16"><path d="m8 7.414 3.293 3.293a1 1 0 0 0 1.414-1.414l-4-4a1 1 0 0 0-1.414 0l-4 4a1 1 0 0 0 1.414 1.414L8 7.414Z"/></symbol><symbol id="ui-memberships" viewBox="0 0 16 16"><circle cx="8" cy="8" r="2"/><path d="M2.697 2.697c-1.2 1.199-.179 4.771 2.828 7.778 3.007 3.007 6.58 4.027 7.778 2.828 1.2-1.199.179-4.771-2.828-7.778-3.007-3.007-6.58-4.027-7.778-2.828ZM1.636 1.636c1.953-1.953 6.385-.686 9.9 2.828 3.514 3.515 4.78 7.947 2.828 9.9-1.953 1.953-6.385.686-9.9-2.828C.95 8.02-.316 3.589 1.636 1.636Z"/><path d="M2.697 13.303c1.199 1.2 4.771.179 7.778-2.828 3.007-3.007 4.027-6.58 2.828-7.778-1.199-1.2-4.771-.179-7.778 2.828-3.007 3.007-4.027 6.58-2.828 7.778Zm-1.061 1.061c-1.953-1.953-.686-6.385 2.828-9.9 3.515-3.514 7.947-4.78 9.9-2.828 1.953 1.953.686 6.385-2.828 9.9-3.515 3.514-7.947 4.78-9.9 2.828Z"/></symbol><symbol id="navbar-close" viewBox="0 0 24 24"><path d="m12 10.586 6.364-6.364a1 1 0 0 1 1.414 1.414L13.414 12l6.364 6.364a1 1 0 0 1-1.414 1.414L12 13.414l-6.364 6.364a1 1 0 1 1-1.414-1.414L10.586 12 4.222 5.636a1 1 0 0 1 1.414-1.414L12 10.586Z"/></symbol><symbol id="ui-star-half" viewBox="0 0 16 16"><path d="m8 10.001 2.198 1.326-.582-2.502 1.942-1.682-2.559-.22L8 4.563v5.438Zm0 1.168-3.708 2.237.981-4.22L2 6.35l4.315-.37L8 2l1.685 3.978 4.315.37-3.273 2.838.98 4.22L8 11.169Z"/></symbol><symbol id="navbar-user" viewBox="0 0 24 24"><path d="M12 13a6 6 0 1 1 0-12 6 6 0 0 1 0 12Zm0-2a4 4 0 1 0 0-8 4 4 0 0 0 0 8ZM3 22a1 1 0 0 1-2 0v-1c0-3.843 1.726-6 5-6h12c3.274 0 5 2.157 5 6v1a1 1 0 0 1-2 0v-1c0-2.824-.94-4-3-4H6c-2.06 0-3 1.176-3 4v1Z"/></symbol><symbol id="ui-arrow-up" viewBox="0 0 16 16"><path d="M7 4.414V14a1 1 0 0 0 2 0V4.414l2.293 2.293a1 1 0 0 0 1.414-1.414l-4-4a1 1 0 0 0-1.414 0l-4 4a1 1 0 0 0 1.414 1.414L7 4.414Z"/></symbol><symbol id="ui-play" viewBox="0 0 16 16"><path d="M3 3a1 1 0 0 1 1.486-.874l9 5a1 1 0 0 1 0 1.748l-9 5A1 1 0 0 1 3 13V3Zm2 1.7v6.6L10.94 8 5 4.7Z"/></symbol><symbol id="menu-indie-fund" viewBox="0 0 24 24"><path d="M19.649 8a3 3 0 0 1 3 3.452l-1.38 8.998A2.997 2.997 0 0 1 18.28 23H7a1 1 0 0 1-1-1V11a1 1 0 0 1 .086-.406l4-9A1 1 0 0 1 11 1a4 4 0 0 1 4 4v3h4.649ZM8 21h10.291a1 1 0 0 0 1-.852l1.38-8.998A1 1 0 0 0 19.66 10H14a1 1 0 0 1-1-1V5a2 2 0 0 0-1.392-1.906L8 11.212V21Zm-2-9H4a1 1 0 0 0-1 1v7a1 1 0 0 0 1 1h2v-9Zm1 11H4a3 3 0 0 1-3-3v-7a3 3 0 0 1 3-3h3a1 1 0 0 1 1 1v11a1 1 0 0 1-1 1Z"/></symbol><symbol id="navbar-menu" viewBox="0 0 24 24"><path d="M2 5a1 1 0 1 1 0-2h20a1 1 0 0 1 0 2H2Zm0 8a1 1 0 0 1 0-2h20a1 1 0 0 1 0 2H2Zm0 8a1 1 0 0 1 0-2h20a1 1 0 0 1 0 2H2Z"/></symbol><symbol id="editor-list-ol" viewBox="0 0 16 16"><path d="M3.86 13.585c0 .417-.142.745-.426.984-.284.24-.637.359-1.059.359-.552 0-1-.172-1.344-.516l.445-.688c.255.235.531.352.828.352a.69.69 0 0 0 .395-.113.375.375 0 0 0 .168-.332c0-.333-.273-.48-.82-.438l-.203-.438c.041-.052.126-.165.254-.34.128-.175.239-.315.332-.422.093-.107.19-.207.289-.301v-.008c-.083 0-.21.003-.379.008-.17.005-.296.008-.379.008v.414h-.828v-1.187h2.602v.688l-.742.898c.265.063.476.19.633.383.157.193.235.422.234.688v.001Zm.015-4.898v1.242H1.047A2.809 2.809 0 0 1 1 9.507c0-.265.061-.508.184-.727.123-.22.27-.396.441-.531.171-.135.343-.258.516-.371.173-.113.32-.226.441-.34.121-.114.183-.231.184-.352 0-.13-.038-.23-.113-.301a.43.43 0 0 0-.309-.105c-.24 0-.45.151-.633.453l-.664-.461c.125-.265.311-.472.559-.621.248-.149.523-.223.824-.223.38 0 .7.108.961.324.26.216.391.509.391.879a1.1 1.1 0 0 1-.266.715 2.084 2.084 0 0 1-.586.504c-.213.12-.41.252-.59.395-.18.143-.272.28-.277.41h.992v-.469h.82v.001Zm11.008 2.492v1.5a.24.24 0 0 1-.074.176.24.24 0 0 1-.176.074h-9.5a.24.24 0 0 1-.176-.074.24.24 0 0 1-.074-.176v-1.5a.239.239 0 0 1 .25-.25h9.5a.24.24 0 0 1 .176.074.24.24 0 0 1 .074.176Zm-11-7.023v.773H1.266v-.773h.836c0-.213.001-.531.004-.953.003-.422.004-.737.004-.945v-.094h-.016c-.041.089-.172.23-.391.422l-.555-.594L2.21 1h.828v3.156h.845Zm11 3.023v1.5a.24.24 0 0 1-.074.176.24.24 0 0 1-.176.074h-9.5a.24.24 0 0 1-.176-.074.24.24 0 0 1-.074-.176v-1.5a.239.239 0 0 1 .25-.25h9.5a.24.24 0 0 1 .176.074.24.24 0 0 1 .074.176Zm0-4v1.5a.24.24 0 0 1-.074.176.24.24 0 0 1-.176.074h-9.5a.24.24 0 0 1-.176-.074.24.24 0 0 1-.074-.176v-1.5a.24.24 0 0 1 .074-.176.24.24 0 0 1 .176-.074h9.5a.24.24 0 0 1 .176.074.24.24 0 0 1 .074.176Z"/></symbol><symbol id="social-dribbble" viewBox="0 0 16 16"><path d="M8 0C3.583 0 0 3.583 0 8a8 8 0 0 0 8 8 8 8 0 0 0 8-8c0-4.417-3.583-8-8-8Zm5.08 3.688c.9 1.058 1.47 2.4 1.57 3.87-1.442-.075-3.167-.075-4.55.054a22.688 22.688 0 0 0-.55-1.291c1.596-.692 2.825-1.6 3.53-2.633ZM8 1.333c1.617 0 3.1.575 4.254 1.534-.725.916-1.862 1.712-3.279 2.316C8.2 3.75 7.308 2.517 6.358 1.546A6.69 6.69 0 0 1 8 1.333Zm-3.017.73c.963.958 1.867 2.179 2.659 3.608-1.505.458-3.23.72-5.071.72-.35 0-.692-.012-1.03-.033a6.67 6.67 0 0 1 3.442-4.295Zm-3.637 5.62c.379.017.762.025 1.15.021 2.1-.025 4.054-.354 5.733-.891.159.329.309.666.45 1.012-.229.054-.433.112-.596.18C5.787 8.966 3.98 10.52 3 12.4A6.642 6.642 0 0 1 1.333 8c0-.108.004-.213.013-.317ZM8 14.667a6.628 6.628 0 0 1-4.088-1.405C4.8 11.505 6.383 10.05 8.38 9.146c.188-.088.438-.159.725-.221.238.658.45 1.342.638 2.05.287 1.104.491 2.196.616 3.254A6.605 6.605 0 0 1 8 14.667Zm3.604-1.063c-.125-1.07-.329-2.17-.62-3.287a22.495 22.495 0 0 0-.48-1.58c1.309-.108 2.875-.091 4.121 0a6.66 6.66 0 0 1-3.02 4.867Z"/></symbol><symbol id="ui-sort-default" viewBox="0 0 16 16"><path opacity=".3" d="m8 2.414 3.293 3.293a1 1 0 0 0 1.414-1.414l-4-4a1 1 0 0 0-1.414 0l-4 4a1 1 0 0 0 1.414 1.414L8 2.414Z"/><path opacity=".3" d="m8 12.414 3.293 3.293a1 1 0 0 0 1.414-1.414l-4-4a1 1 0 0 0-1.414 0l-4 4a1 1 0 0 0 1.414 1.414L8 12.414Z" transform="matrix(1 0 0 -1 0 26)"/></symbol><symbol id="ui-play-circled" viewBox="0 0 144 144"><g fill="none" fill-rule="evenodd"><circle cx="72" cy="72" r="70" stroke="#FFF" stroke-width="4"/><path fill="#FFF" d="M64 57.827v28.346a1 1 0 0 0 1.54.842l22.144-14.173a1 1 0 0 0 0-1.684L65.539 56.985a1 1 0 0 0-1.539.842Z"/></g></symbol><symbol id="social-visual-studio" viewBox="0 0 16 16"><path d="m7.999 7.99 4.05-3.027v6.078L8 7.99Zm-6.48 1.834-.002-3.64 2.025 1.808L1.52 9.824ZM15.9 1.325 12.592 0 5.424 6.98 1.048 3.65l-.947.476L.1 11.883l.939.47L5.41 9.027 12.597 16l3.303-1.32-.002-13.355Z"/></symbol><symbol id="editor-link" viewBox="0 0 16 16"><path d="M6.208 9.023a3.838 3.838 0 0 0 5.789.414l1.919-1.919a3.838 3.838 0 0 0-5.42-5.435l-1.107 1.1a.64.64 0 0 0 .902.908l1.1-1.094a2.559 2.559 0 0 1 3.612 3.625l-1.911 1.91a2.559 2.559 0 0 1-3.86-.275.64.64 0 1 0-1.024.766Zm3.584-2.046a3.838 3.838 0 0 0-5.789-.414L2.084 8.482a3.838 3.838 0 0 0 5.42 5.435l1.102-1.102a.64.64 0 0 0-.905-.904l-1.094 1.094a2.559 2.559 0 0 1-3.61-3.626l1.911-1.912a2.559 2.559 0 0 1 3.86.276.64.64 0 1 0 1.024-.766Z"/></symbol><symbol id="editor-table" viewBox="0 0 16 16"><path d="M5 10.75v1.5a.723.723 0 0 1-.219.531.723.723 0 0 1-.531.219h-2.5a.723.723 0 0 1-.531-.219A.723.723 0 0 1 1 12.25v-1.5c0-.208.073-.385.219-.531A.723.723 0 0 1 1.75 10h2.5c.208 0 .385.073.531.219A.723.723 0 0 1 5 10.75Zm0-4v1.5a.723.723 0 0 1-.219.531A.723.723 0 0 1 4.25 9h-2.5a.723.723 0 0 1-.531-.219A.723.723 0 0 1 1 8.25v-1.5c0-.208.073-.385.219-.531A.723.723 0 0 1 1.75 6h2.5c.208 0 .385.073.531.219A.723.723 0 0 1 5 6.75Zm5 4v1.5a.723.723 0 0 1-.219.531.723.723 0 0 1-.531.219h-2.5a.723.723 0 0 1-.531-.219A.723.723 0 0 1 6 12.25v-1.5c0-.208.073-.385.219-.531A.723.723 0 0 1 6.75 10h2.5c.208 0 .385.073.531.219a.723.723 0 0 1 .219.531Zm-5-8v1.5a.723.723 0 0 1-.219.531A.723.723 0 0 1 4.25 5h-2.5a.723.723 0 0 1-.531-.219A.723.723 0 0 1 1 4.25v-1.5c0-.208.073-.385.219-.531A.723.723 0 0 1 1.75 2h2.5c.208 0 .385.073.531.219A.723.723 0 0 1 5 2.75Zm5 4v1.5a.723.723 0 0 1-.219.531A.723.723 0 0 1 9.25 9h-2.5a.723.723 0 0 1-.531-.219A.723.723 0 0 1 6 8.25v-1.5c0-.208.073-.385.219-.531A.723.723 0 0 1 6.75 6h2.5c.208 0 .385.073.531.219A.723.723 0 0 1 10 6.75Zm5 4v1.5a.723.723 0 0 1-.219.531.723.723 0 0 1-.531.219h-2.5a.723.723 0 0 1-.531-.219.723.723 0 0 1-.219-.531v-1.5c0-.208.073-.385.219-.531A.723.723 0 0 1 11.75 10h2.5c.208 0 .385.073.531.219a.723.723 0 0 1 .219.531Zm-5-8v1.5a.723.723 0 0 1-.219.531A.723.723 0 0 1 9.25 5h-2.5a.723.723 0 0 1-.531-.219A.723.723 0 0 1 6 4.25v-1.5c0-.208.073-.385.219-.531A.723.723 0 0 1 6.75 2h2.5c.208 0 .385.073.531.219A.723.723 0 0 1 10 2.75Zm5 4v1.5a.723.723 0 0 1-.219.531.723.723 0 0 1-.531.219h-2.5a.723.723 0 0 1-.531-.219A.723.723 0 0 1 11 8.25v-1.5c0-.208.073-.385.219-.531A.723.723 0 0 1 11.75 6h2.5c.208 0 .385.073.531.219A.723.723 0 0 1 15 6.75Zm0-4v1.5a.723.723 0 0 1-.219.531.723.723 0 0 1-.531.219h-2.5a.723.723 0 0 1-.531-.219A.723.723 0 0 1 11 4.25v-1.5c0-.208.073-.385.219-.531A.723.723 0 0 1 11.75 2h2.5c.208 0 .385.073.531.219A.723.723 0 0 1 15 2.75Z"/></symbol><symbol id="menu-private-messages" viewBox="0 0 24 24"><path d="m4.581 19.419 3.803-1.268a1 1 0 0 1 .767.056A7.382 7.382 0 0 0 12.5 19a7.502 7.502 0 0 0 6.707-4.15A7.38 7.38 0 0 0 20 11.502l.002-.448C19.792 7.248 16.752 4.21 13 4h-.503a7.385 7.385 0 0 0-3.35.795A7.5 7.5 0 0 0 5 11.503a7.38 7.38 0 0 0 .793 3.346 1 1 0 0 1 .056.767L4.58 19.42ZM22 11.499a9.376 9.376 0 0 1-1.005 4.248A9.5 9.5 0 0 1 12.503 21a9.38 9.38 0 0 1-3.87-.824L3.317 21.95a1 1 0 0 1-1.265-1.265l1.773-5.318A9.498 9.498 0 0 1 8.249 3.007 9.377 9.377 0 0 1 12.5 2l.555.002C17.88 2.268 21.732 6.12 22 11v.499Z"/></symbol><symbol id="menu-target" viewBox="0 0 24 24"><path d="M12 1c6.075 0 11 4.925 11 11s-4.925 11-11 11S1 18.075 1 12 5.925 1 12 1Zm0 2a9 9 0 1 0 0 18 9 9 0 0 0 0-18Zm0 2a7 7 0 1 1 0 14 7 7 0 0 1 0-14Zm0 2a5 5 0 1 0 0 10 5 5 0 0 0 0-10Zm0 2a3 3 0 1 1 0 6 3 3 0 0 1 0-6Zm0 2a1 1 0 1 0 0 2 1 1 0 0 0 0-2Z"/></symbol><symbol id="ui-minus-circled" viewBox="0 0 16 16"><path fill-rule="evenodd" d="M8 16A8 8 0 1 1 8 0a8 8 0 0 1 0 16Zm4-8.5a.5.5 0 0 0-.5-.5h-7a.5.5 0 0 0-.5.5v1a.5.5 0 0 0 .5.5h7a.5.5 0 0 0 .5-.5v-1Z"/></symbol><symbol id="navbar-menu-close" viewBox="0 0 24 24"><path d="m12 10.586 6.364-6.364a1 1 0 0 1 1.414 1.414L13.414 12l6.364 6.364a1 1 0 0 1-1.414 1.414L12 13.414l-6.364 6.364a1 1 0 1 1-1.414-1.414L10.586 12 4.222 5.636a1 1 0 0 1 1.414-1.414L12 10.586Z"/></symbol><symbol id="social-slack" viewBox="0 0 16 16"><path d="M15.326 5.726c1.628 5.39.365 7.748-5.052 9.376-5.418 1.6-7.748.337-9.376-5.053C-.702 4.632.561 2.302 5.951.674c5.417-1.6 7.747-.337 9.375 5.052Zm-2.722 3.51c.42-.141.645-.618.505-1.04-.14-.42-.618-.645-1.039-.505l-1.01.337-.674-2.021 1.039-.337c.42-.14.645-.617.505-1.038-.14-.421-.618-.646-1.039-.506l-1.01.337-.365-1.067c-.14-.42-.618-.645-1.039-.505-.42.14-.645.618-.505 1.039l.309 1.066-2.106.702-.364-1.066c-.14-.421-.618-.646-1.04-.506-.42.14-.645.618-.504 1.039l.365 1.067-1.01.336c-.422.14-.647.618-.506 1.039a.809.809 0 0 0 .758.561.997.997 0 0 0 .28-.056l1.01-.337.675 2.021-1.01.337c-.422.14-.647.618-.506 1.039a.809.809 0 0 0 .758.561.997.997 0 0 0 .28-.056l1.01-.337.366 1.067a.809.809 0 0 0 .758.561.997.997 0 0 0 .28-.056c.421-.14.646-.617.506-1.038l-.365-1.067 2.105-.702.393 1.067a.809.809 0 0 0 .758.561.997.997 0 0 0 .28-.056c.422-.14.646-.617.506-1.038l-.365-1.067 1.01-.337Zm-5.183 0-.678-2.024 2.103-.704.677 2.023-2.102.704Z"/></symbol><symbol id="menu-answers" viewBox="0 0 24 24"><path d="M12 23C5.925 23 1 18.075 1 12S5.925 1 12 1s11 4.925 11 11-4.925 11-11 11Zm0-2a9 9 0 1 0 0-18 9 9 0 0 0 0 18ZM10.033 9.332a1 1 0 1 1-1.886-.664A4 4 0 0 1 15.92 10c0 1.28-.758 2.29-1.945 3.082a7.575 7.575 0 0 1-1.739.867 1 1 0 1 1-.632-1.898 5.988 5.988 0 0 0 1.262-.633c.687-.459 1.054-.948 1.054-1.42a2 2 0 0 0-3.887-.666ZM12 18a1 1 0 1 1 0-2 1 1 0 0 1 0 2Z"/></symbol><symbol id="ui-triangle-outline" viewBox="0 0 16 16"><path d="m8 5-4.33 7.5h8.66L8 5Zm0-4 7.794 13.5H.206L8 1Z"/></symbol><symbol id="menu-education" viewBox="0 0 24 24"><path d="m21 10.23-1 .545V17a1 1 0 0 1-.504.868l-7 4a1 1 0 0 1-.992 0l-7-4A1 1 0 0 1 4 17v-6.225L.521 8.878a1 1 0 0 1 0-1.756l11-6a1 1 0 0 1 .958 0l11 6a1 1 0 0 1 0 1.756L23 9.139V15a1 1 0 0 1-2 0v-4.77Zm-3 1.636-5.521 3.012a1 1 0 0 1-.958 0L6 11.866v4.554l6 3.428 6-3.428v-4.554ZM12 3.14 3.088 8 12 12.86 20.912 8 12 3.14Z"/></symbol><symbol id="ui-close" viewBox="0 0 16 16"><path d="M12.887 11.405 9.472 7.977l3.423-3.384c.14-.14.14-.37 0-.51l-.974-.978A.358.358 0 0 0 11.666 3a.37.37 0 0 0-.255.104L8.004 6.478l-3.412-3.37a.358.358 0 0 0-.255-.105.37.37 0 0 0-.255.104l-.97.979c-.141.14-.141.37 0 .51l3.422 3.383-3.412 3.426a.36.36 0 0 0 0 .51l.973.978a.359.359 0 0 0 .51 0l3.4-3.414 3.4 3.412a.359.359 0 0 0 .511 0l.973-.979a.36.36 0 0 0 .107-.255.373.373 0 0 0-.11-.252Z"/></symbol><symbol id="ui-eye-off" viewBox="0 0 16 16"><path d="M1.146 1.146a.5.5 0 0 1 .708 0l13 13a.5.5 0 0 1-.708.708l-13-13a.5.5 0 0 1 0-.708ZM2.82 4.82C.95 6.25 0 8 0 8s2.048 5 8 5c.95 0 1.813-.155 2.59-.41l-1.592-1.592a3.79 3.79 0 0 1-.986.127c-1.932 0-3.33-1.367-3.33-3.125 0-.395.07-.77.202-1.116L2.821 4.821Zm4.187.187L5.42 3.42A8.066 8.066 0 0 1 8 3c5.37 0 8 5.02 8 5.02s-.92 1.756-2.797 3.183l-2.07-2.07c.136-.35.21-.73.21-1.133 0-1.758-1.398-3.125-3.33-3.125a3.79 3.79 0 0 0-1.006.132Zm-.993 3.007c.008.955.824 1.786 1.856 1.856L6.014 8.014Zm3.996-.004L8.128 6.128c1.05.057 1.882.902 1.882 1.872v.01Z"/></symbol><symbol id="ui-chatbox" viewBox="0 0 16 16"><path d="M4 12a3 3 0 0 1-3-3V5a3 3 0 0 1 3-3h8a3 3 0 0 1 3 3v4a3 3 0 0 1-3 3H9l-4 3v-3H4Z"/></symbol><symbol id="ui-refresh" viewBox="0 0 16 16"><path d="M4.07 4.234a5.117 5.117 0 0 0-1.487 3.965H.007a7.68 7.68 0 0 1 2.244-5.784c2.726-2.726 6.978-2.976 9.996-.771.59-.585 1.444-1.417 1.444-1.417.516-.509 1.017-.067.994.388v4.98a.349.349 0 0 1-.347.347h-5.02c-.31.01-.918-.365-.376-1.015 0 0 .774-.777 1.446-1.441a5.144 5.144 0 0 0-6.319.748Zm8.567 3.1h2.576a7.685 7.685 0 0 1-2.243 5.784c-2.726 2.726-6.978 2.975-9.997.77-.59.585-1.444 1.417-1.444 1.417-.517.508-1.016.067-.995-.388V9.938c0-.191.157-.348.348-.348h1.053l.347.001h3.62c.31-.01.919.364.377 1.014 0 0-.774.777-1.445 1.441a5.143 5.143 0 0 0 6.317-.747 5.117 5.117 0 0 0 1.486-3.966Z"/></symbol><symbol id="ui-chevron-right" viewBox="0 0 16 16"><path d="m8.586 8-3.293 3.293a1 1 0 0 0 1.414 1.414l4-4a1 1 0 0 0 0-1.414l-4-4a1 1 0 0 0-1.414 1.414L8.586 8Z"/></symbol><symbol id="ui-images" viewBox="0 0 16 16"><path d="M14.125 4c.488 0 .875.397.875.884v10.232a.878.878 0 0 1-.875.884H1.875A.878.878 0 0 1 1 15.116V4.884C1 4.397 1.387 4 1.875 4h12.25Zm-3.222 6.178L14 13.512l-.01-8.137A.397.397 0 0 0 13.589 5H2.409A.412.412 0 0 0 2 5.366v8.14l3.953-4.768A.69.69 0 0 1 7 8.728l1.681 1.819c.047.047.103.1.135.128.087.078.209.128.343.128.141 0 .238-.06.36-.147l.584-.494c.128-.103.24-.178.4-.178.163 0 .306.085.4.194ZM11.5 9a1.5 1.5 0 1 1 0-3 1.5 1.5 0 0 1 0 3Zm-8-6a.5.5 0 0 1 0-1h9a.5.5 0 1 1 0 1h-9Zm1-2a.5.5 0 0 1 0-1h7a.5.5 0 1 1 0 1h-7Z"/></symbol><symbol id="menu-press" viewBox="0 0 24 24"><path d="M6 14v6c0 .781.219 1 1 1s1-.219 1-1v-6H6Zm4 0v6c0 1.886-1.114 3-3 3s-3-1.114-3-3v-6H3c-1.886 0-3-1.114-3-3V9c0-1.886 1.114-3 3-3h8.745L21.782.525A1.5 1.5 0 0 1 24 1.842v16.316a1.5 1.5 0 0 1-2.218 1.317L11.745 14H10Zm2.255-6H3c-.781 0-1 .219-1 1v2c0 .781.219 1 1 1h9.255L22 17.315V2.685L12.255 8Z"/></symbol><symbol id="editor-strikethrough" viewBox="0 0 16 16"><path d="M14.75 8a.239.239 0 0 1 .25.25v.5a.239.239 0 0 1-.25.25H1.25A.239.239 0 0 1 1 8.75v-.5A.239.239 0 0 1 1.25 8h13.5Zm-9.977-.5a3.61 3.61 0 0 1-.398-.625C4.125 6.369 4 5.88 4 5.405c0-.942.349-1.746 1.047-2.413C5.74 2.33 6.763 2 8.117 2c.26 0 .696.05 1.305.148.344.063.805.188 1.383.375.052.198.107.505.164.922.073.64.109 1.117.109 1.43 0 .094-.013.211-.039.352l-.094.023-.656-.047-.109-.016c-.26-.776-.529-1.31-.805-1.602-.459-.474-1.006-.711-1.641-.711-.594 0-1.068.154-1.422.46a1.445 1.445 0 0 0-.523 1.142c0 .38.172.744.516 1.094.344.349 1.07.685 2.18 1.008.36.104.81.276 1.352.516.302.146.55.28.742.406H4.773Zm3.961 2h3.211c.037.203.055.442.055.718 0 .578-.107 1.13-.32 1.656-.12.287-.305.558-.555.813a5.933 5.933 0 0 1-.852.633 4.4 4.4 0 0 1-1.195.516c-.417.11-.945.164-1.586.164-.594 0-1.102-.06-1.523-.18l-1.094-.312c-.297-.083-.484-.156-.563-.219a.232.232 0 0 1-.062-.172v-.102a32.3 32.3 0 0 0-.016-1.219 8.78 8.78 0 0 1 0-.53l.016-.29v-.344l.797-.016c.078.178.156.363.234.555l.176.438c.04.1.072.17.098.211.182.297.39.541.625.734.224.187.497.336.82.445.307.115.651.172 1.031.172.333 0 .695-.07 1.086-.21.401-.136.719-.36.953-.673.245-.318.367-.654.367-1.008 0-.437-.211-.846-.633-1.227-.177-.151-.534-.336-1.07-.555V9.5Z"/></symbol><symbol id="social-github" viewBox="0 0 16 16"><path d="M8 0C3.582 0 0 3.675 0 8.204c0 3.625 2.293 6.696 5.471 7.782.05.01.093.014.136.014.297 0 .41-.218.41-.407 0-.197-.006-.71-.01-1.397-.3.068-.568.097-.807.097-1.54 0-1.89-1.197-1.89-1.197-.364-.946-.889-1.2-.889-1.2-.696-.489-.003-.503.05-.503h.004c.804.071 1.225.85 1.225.85.4.7.936.896 1.414.896.375 0 .715-.121.915-.214.071-.529.278-.89.507-1.096-1.775-.208-3.643-.911-3.643-4.054 0-.896.31-1.629.821-2.2-.082-.207-.357-1.043.079-2.171 0 0 .057-.018.178-.018.29 0 .943.11 2.022.86a7.494 7.494 0 0 1 2.003-.275A7.514 7.514 0 0 1 10 4.246c1.079-.75 1.732-.86 2.021-.86.122 0 .179.018.179.018.436 1.128.16 1.964.079 2.171.51.575.821 1.307.821 2.2 0 3.15-1.871 3.843-3.654 4.046.286.254.543.754.543 1.518 0 1.097-.01 1.982-.01 2.25 0 .193.11.411.407.411a.691.691 0 0 0 .143-.014C13.71 14.9 16 11.825 16 8.204 16 3.675 12.418 0 8 0Z"/></symbol><symbol id="menu-certification" viewBox="0 0 24 24"><path d="M22.963 8.912c-.1-.4-.399-.599-.798-.699l-6.378-.898-2.89-5.79c-.299-.7-1.495-.7-1.794 0l-2.89 5.69-6.279.998c-.398 0-.697.3-.897.7-.1.399 0 .798.3.998l4.584 4.492-1.097 6.39c-.1.4.1.799.4.998.298.2.697.3 1.095.1L12 18.896l5.68 2.995h.499c.2 0 .399-.1.598-.2.299-.2.498-.599.399-.998l-1.097-6.39 4.585-4.492c.299-.2.398-.6.299-.899Zm-6.678 4.393c-.199.3-.299.6-.299.899l.798 4.892-4.385-2.297c-.3-.2-.598-.2-.897 0l-4.385 2.297.897-4.892c0-.3-.1-.6-.3-.899L4.128 9.911l4.883-.7c.3 0 .598-.299.797-.498L12 4.22l2.193 4.393c.1.3.398.499.797.499l4.883.699-3.588 3.494Z"/></symbol><symbol id="menu-rss" viewBox="0 0 24 24"><path d="M4 12a1 1 0 0 1 0-2c5.523 0 10 4.477 10 10a1 1 0 0 1-2 0 8 8 0 0 0-8-8Zm0-7a1 1 0 1 1 0-2c9.389 0 17 7.611 17 17a1 1 0 0 1-2 0c0-8.284-6.716-15-15-15Zm1 16a2 2 0 1 1 0-4 2 2 0 0 1 0 4Z"/></symbol><symbol id="ui-star" viewBox="0 0 16 16"><path d="m8 11.169 3.708 2.237-.981-4.22L14 6.349l-4.315-.371L8 2 6.315 5.978 2 6.349l3.273 2.837-.981 4.22z"/></symbol><symbol id="menu-vendor" viewBox="0 0 24 24"><path fill-rule="evenodd" d="M18 21H6c-.781 0-1-.219-1-1v-7.043c.834-.091 1.508-.404 2-.923V16a2 2 0 0 0 2 2h6a2 2 0 0 0 2-2v-3.966c.492.519 1.166.832 2 .923V20c0 .781-.219 1-1 1Zm-9-8.043c.164.018.323.043.5.043 1.075 0 1.911-.345 2.5-.966.589.621 1.425.966 2.5.966.177 0 .336-.025.5-.043V16H9v-3.043ZM5.659 3h12.682l2.651 6.187C20.954 10.52 20.521 11 19.5 11c-1.07 0-1.5-.516-1.5-2a1 1 0 1 0-2 0c0 1.484-.43 2-1.5 2S13 10.484 13 9a1 1 0 0 0-2 0c0 1.484-.43 2-1.5 2S8 10.484 8 9a1 1 0 0 0-2 0c0 1.484-.43 2-1.5 2-1.021 0-1.455-.48-1.492-1.813L5.659 3Zm17.302 5.807c-.014-.067-.016-.138-.041-.199l-.001-.002-3-7A.999.999 0 0 0 19 1H5c-.4 0-.762.238-.919.606l-3 7v.002c-.027.061-.028.132-.042.199-.013.064-.039.128-.039.191V9c0 1.888.696 3.194 2 3.729V20c0 1.886 1.114 3 3 3h12c1.886 0 3-1.114 3-3v-7.271c1.304-.535 2-1.841 2-3.729v-.002c0-.063-.026-.127-.039-.191Z"/></symbol><symbol id="menu-careers" viewBox="0 0 24 24"><path d="M7 6V5a3 3 0 0 1 3-3h4a3 3 0 0 1 3 3v1h3a3 3 0 0 1 3 3v10a3 3 0 0 1-3 3H4a3 3 0 0 1-3-3V9a3 3 0 0 1 3-3h3Zm2 0h6V5a1 1 0 0 0-1-1h-4a1 1 0 0 0-1 1v1ZM7 8H4a1 1 0 0 0-1 1v10a1 1 0 0 0 1 1h3V8Zm2 0v12h6V8H9Zm8 0v12h3a1 1 0 0 0 1-1V9a1 1 0 0 0-1-1h-3Z"/></symbol><symbol id="social-gitlab" viewBox="0 0 16 16"><path fill-rule="evenodd" d="m15.749 9.109-7.75 5.63-7.748-5.63a.61.61 0 0 1-.221-.682l.895-2.756L2.7.211a.306.306 0 0 1 .08-.129.31.31 0 0 1 .42 0 .306.306 0 0 1 .08.128l1.774 5.461h5.892L12.72.211a.306.306 0 0 1 .08-.129.31.31 0 0 1 .42 0 .306.306 0 0 1 .08.128l1.775 5.461.895 2.756a.61.61 0 0 1-.221.682"/></symbol><symbol id="ui-more-vertical" viewBox="0 0 16 16"><path fill-rule="evenodd" d="M6 2a2 2 0 1 1 4 0 2 2 0 0 1-4 0Zm0 6a2 2 0 1 1 4 0 2 2 0 0 1-4 0Zm0 6a2 2 0 1 1 4 0 2 2 0 0 1-4 0Z"/></symbol><symbol id="editor-html" viewBox="0 0 16 16"><path d="M5.707 4.707 2.414 8l3.293 3.293a1 1 0 0 1-1.414 1.414l-4-4a1 1 0 0 1 0-1.414l4-4a1 1 0 0 1 1.414 1.414Zm4.586 0a1 1 0 0 1 1.414-1.414l4 4a1 1 0 0 1 0 1.414l-4 4a1 1 0 0 1-1.414-1.414L13.586 8l-3.293-3.293Z"/></symbol><symbol id="ui-arrow-right" viewBox="0 0 16 16"><path d="M11.586 7 9.293 4.707a1 1 0 1 1 1.414-1.414l4 4a1 1 0 0 1 0 1.414l-4 4a1 1 0 1 1-1.414-1.414L11.586 9H2a1 1 0 1 1 0-2h9.586Z"/></symbol><symbol id="menu-support-ticket" viewBox="0 0 24 24"><path id="menu-support-ticket-a" d="M13 10h3a1 1 0 0 1 0 2h-3v3a1 1 0 0 1-2 0v-3H8a1 1 0 0 1 0-2h3V7a1 1 0 0 1 2 0v3ZM7.938 20.203l-4.424 2.654A1 1 0 0 1 2 22V2a1 1 0 0 1 1-1h18a1 1 0 0 1 1 1v20a1 1 0 0 1-1.514.857l-4.424-2.654L12.6 22.8a1 1 0 0 1-1.2 0l-3.462-2.597ZM4 3v17.234l3.486-2.091A1 1 0 0 1 8.6 18.2l3.4 2.55 3.4-2.55a1 1 0 0 1 1.114-.057L20 20.233V3H4Z"/></symbol><symbol id="menu-features" viewBox="0 0 24 24"><path d="M3 2h7a1 1 0 0 1 1 1v7a1 1 0 0 1-1 1H3a1 1 0 0 1-1-1V3a1 1 0 0 1 1-1Zm11 0h7a1 1 0 0 1 1 1v7a1 1 0 0 1-1 1h-7a1 1 0 0 1-1-1V3a1 1 0 0 1 1-1Zm0 11h7a1 1 0 0 1 1 1v7a1 1 0 0 1-1 1h-7a1 1 0 0 1-1-1v-7a1 1 0 0 1 1-1ZM3 13h7a1 1 0 0 1 1 1v7a1 1 0 0 1-1 1H3a1 1 0 0 1-1-1v-7a1 1 0 0 1 1-1Zm1-4h5V4H4v5Zm11 0h5V4h-5v5ZM4 20h5v-5H4v5Zm11 0h5v-5h-5v5Z"/></symbol><symbol id="menu-memberships" viewBox="0 0 24 24"><g fill-rule="evenodd"><circle cx="12" cy="12" r="3"/><path fill-rule="nonzero" d="M2.1 21.9c-2.882-2.883-.471-9.428 4.95-14.85C12.472 1.63 19.017-.782 21.9 2.1c2.882 2.883.471 9.428-4.95 14.85C11.528 22.37 4.983 24.782 2.1 21.9Zm1.415-1.415c1.803 1.804 7.288-.217 12.02-4.95 4.733-4.732 6.754-10.217 4.95-12.02-1.803-1.804-7.288.217-12.02 4.95-4.733 4.732-6.754 10.217-4.95 12.02Z"/><path fill-rule="nonzero" d="M2.1 2.1c2.883-2.882 9.428-.471 14.85 4.95 5.421 5.422 7.832 11.967 4.95 14.85-2.883 2.882-9.428.471-14.85-4.95C1.63 11.528-.782 4.983 2.1 2.1Zm1.415 1.415c-1.804 1.803.217 7.288 4.95 12.02 4.732 4.733 10.217 6.754 12.02 4.95 1.804-1.803-.217-7.288-4.95-12.02-4.732-4.733-10.217-6.754-12.02-4.95Z"/></g></symbol><symbol id="ui-bars-one-of-three" viewBox="0 0 16 16"><rect width="4" height="12" y="2" rx="1"/><rect width="4" height="12" x="6" y="2" opacity=".3" rx="1"/><rect width="4" height="12" x="12" y="2" opacity=".3" rx="1"/></symbol><symbol id="ui-close-circled" viewBox="0 0 16 16"><path fill-rule="evenodd" d="M8 16A8 8 0 1 1 8 0a8 8 0 0 1 0 16Zm3.91-5.276L9.177 7.982l2.738-2.707a.289.289 0 0 0 0-.408l-.779-.783a.286.286 0 0 0-.204-.083.295.295 0 0 0-.204.083L8.004 6.783l-2.73-2.697a.286.286 0 0 0-.204-.083.295.295 0 0 0-.204.083l-.776.783a.289.289 0 0 0 0 .408l2.737 2.707-2.73 2.74a.288.288 0 0 0 0 .408l.78.783a.287.287 0 0 0 .408 0l2.719-2.732 2.72 2.73a.287.287 0 0 0 .409 0l.779-.783a.288.288 0 0 0 .085-.204.299.299 0 0 0-.088-.202Z"/></symbol><symbol id="ui-edit" viewBox="0 0 16 16"><path d="M13.5 9.745a.75.75 0 1 1 1.5 0v4.005A2.25 2.25 0 0 1 12.75 16H2.25A2.25 2.25 0 0 1 0 13.75V3.25A2.25 2.25 0 0 1 2.25 1h4.005a.75.75 0 0 1 0 1.5H2.25a.75.75 0 0 0-.75.75v10.5c0 .414.336.75.75.75h10.5a.75.75 0 0 0 .75-.75V9.745ZM12.78.22l3 3a.75.75 0 0 1 0 1.06l-7.5 7.5a.75.75 0 0 1-.53.22h-3a.75.75 0 0 1-.75-.75v-3a.75.75 0 0 1 .22-.53l7.5-7.5a.75.75 0 0 1 1.06 0ZM5.5 8.56v1.94h1.94l6.75-6.75-1.94-1.94L5.5 8.56Z"/></symbol><symbol id="menu-documentation" viewBox="0 0 24 24"><path d="M19 16V3H6.5A1.5 1.5 0 0 0 5 4.5v11.837A3.486 3.486 0 0 1 6.5 16H19Zm0 2H6.5a1.5 1.5 0 0 0 0 3H19v-3ZM6.5 1H20a1 1 0 0 1 1 1v20a1 1 0 0 1-1 1H6.5A3.5 3.5 0 0 1 3 19.5v-15A3.5 3.5 0 0 1 6.5 1Z"/></symbol><symbol id="navbar-bell" viewBox="0 0 24 24"><path d="M12 1c5.416 0 8.19 4.113 8.328 11.83 1.775 1.185 2.684 2.944 2.672 5.176A1 1 0 0 1 22 19H2a1 1 0 0 1-1-.994c-.012-2.232.897-3.991 2.672-5.176C3.81 5.113 6.584 1 12 1Zm6.846 13.267a1 1 0 0 1-.513-.872C18.323 6.283 16.21 3 12 3S5.677 6.283 5.667 13.395a1 1 0 0 1-.513.872c-1.166.651-1.844 1.54-2.07 2.733h17.831c-.225-1.193-.903-2.082-2.07-2.733ZM9 20.5h6a.5.5 0 0 1 .416.777C14.654 22.421 13.496 23 12 23s-2.654-.579-3.416-1.723A.5.5 0 0 1 9 20.5Z"/></symbol><symbol id="editor-italic" viewBox="0 0 16 16"><path d="m4.001 13.984.133-.664c.031-.01.244-.067.637-.168s.684-.199.871-.293c.146-.182.253-.445.32-.789.005-.037.167-.79.484-2.258.317-1.469.614-2.884.891-4.246.277-1.362.412-2.134.406-2.316v-.195a1.402 1.402 0 0 0-.426-.145c-.16-.029-.34-.05-.543-.062a5.127 5.127 0 0 1-.453-.043L6.469 2a112.314 112.314 0 0 0 2.105.106c.326.013.64.02.941.02.25 0 .507-.007.77-.02A99.65 99.65 0 0 0 12 2a4.956 4.956 0 0 1-.148.695c-.156.052-.42.126-.793.223a7.278 7.278 0 0 0-.848.262c-.041.099-.078.21-.109.332a4.543 4.543 0 0 0-.07.312 38.118 38.118 0 0 0-.11.683c-.14.77-.369 1.863-.684 3.277-.315 1.414-.517 2.34-.605 2.777a204.118 204.118 0 0 0-.258 1.156c-.047.213-.088.43-.125.652a2.385 2.385 0 0 0-.047.449l.008.141c.089.02.57.101 1.445.242a4.75 4.75 0 0 1-.125.773 3.88 3.88 0 0 0-.254.012 3.88 3.88 0 0 1-.254.012c-.151 0-.378-.026-.68-.078a4.394 4.394 0 0 0-.672-.078c-.719-.01-1.255-.016-1.609-.016-.265 0-.638.023-1.117.07-.48.047-.794.075-.945.086l.001.002Z"/></symbol><symbol id="ui-thumbs-up" viewBox="0 0 16 16"><path d="M4.72 6.563c.43 0 .78.46.78 1.023v6.12c0 .565-.35 1.023-.78 1.023H2.28c-.43 0-.78-.458-.78-1.022V7.586c0-.564.35-1.023.78-1.023h2.44Zm9.812 1.49c0 .306-.036.77-.228 1.045.153.427.182 1.12-.287 1.607.038.824-.17 1.422-.606 1.75a2.217 2.217 0 0 1-.51 1.313c-.217.247-.463.379-.716.379H6.803a1.02 1.02 0 0 1-.303-.062V7.098c.469-.603.814-2.399 1.166-3.417V2.114c0-.052.015-.105.042-.15A.954.954 0 0 1 8.55 1.5c.46 0 .944.277 1.295.74.355.47.858 2.507.441 4.323h2.458c.546 0 1.788.563 1.788 1.49Z"/></symbol><symbol id="menu-enterprise" viewBox="0 0 24 24"><path d="M13 5v7a1 1 0 0 1-2 0V5H5v7a1 1 0 0 1-2 0V4a1 1 0 0 1 1-1h16a1 1 0 0 1 1 1v8a1 1 0 0 1-2 0V5h-6ZM2 15h4a1 1 0 0 1 1 1v4a1 1 0 0 1-1 1H2a1 1 0 0 1-1-1v-4a1 1 0 0 1 1-1Zm1.5 2a.5.5 0 0 0-.5.5v1a.5.5 0 0 0 .5.5h1a.5.5 0 0 0 .5-.5v-1a.5.5 0 0 0-.5-.5h-1Zm6.5-2h4a1 1 0 0 1 1 1v4a1 1 0 0 1-1 1h-4a1 1 0 0 1-1-1v-4a1 1 0 0 1 1-1Zm1.5 2a.5.5 0 0 0-.5.5v1a.5.5 0 0 0 .5.5h1a.5.5 0 0 0 .5-.5v-1a.5.5 0 0 0-.5-.5h-1Zm6.5-2h4a1 1 0 0 1 1 1v4a1 1 0 0 1-1 1h-4a1 1 0 0 1-1-1v-4a1 1 0 0 1 1-1Zm1.5 2a.5.5 0 0 0-.5.5v1a.5.5 0 0 0 .5.5h1a.5.5 0 0 0 .5-.5v-1a.5.5 0 0 0-.5-.5h-1Z"/></symbol><symbol id="ui-danger" viewBox="0 0 16 16"><path fill-rule="evenodd" d="m8 1 8 14H0L8 1ZM7 5v6h2V5H7Zm0 7v2h2v-2H7Z"/></symbol><symbol id="social-nintendo-switch" viewBox="0 0 16 16"><path d="M3.424.051A4.134 4.134 0 0 0 .146 3.065c-.147.56-.157.889-.14 5.23.008 3.986.011 4.079.079 4.39.368 1.66 1.546 2.842 3.224 3.23.218.05.497.062 2.29.069 1.853.014 2.045.01 2.095-.04.05-.05.054-.689.054-7.934 0-5.374-.01-7.902-.032-7.948C7.684 0 7.626-.003 5.684 0c-1.578.004-2.053.014-2.26.05ZM6.42 8v6.709l-1.35-.018c-1.243-.014-1.375-.021-1.625-.082a2.814 2.814 0 0 1-2.082-2.167c-.071-.336-.071-8.574-.003-8.902.2-.932.846-1.704 1.714-2.05.435-.175.639-.196 2.057-.2l1.281-.004V8h.008ZM3.71 3.315c-.208.039-.526.2-.697.346-.346.3-.521.728-.493 1.232.015.26.029.332.136.543a1.5 1.5 0 0 0 .71.714c.222.11.28.121.568.132.261.01.354 0 .529-.06.718-.244 1.153-.94 1.028-1.658-.14-.846-.95-1.417-1.782-1.25ZM9.357.019c-.014.01-.021 3.6-.021 7.98 0 7.224.003 7.956.053 7.978.09.032 2.66.021 2.979-.015a4.135 4.135 0 0 0 3.177-2.185c.083-.157.193-.418.25-.578.208-.622.204-.458.204-5.217 0-3.8-.007-4.367-.054-4.607A4.115 4.115 0 0 0 12.572.051c-.232-.04-.59-.05-1.743-.05-.8-.004-1.46.007-1.47.018Zm3.539 7.216c.518.136.94.529 1.114 1.032.11.311.107.768-.004 1.054-.203.525-.6.892-1.11 1.028a1.63 1.63 0 0 1-1.95-1.107 1.933 1.933 0 0 1 .015-.935 1.602 1.602 0 0 1 1.935-1.072Z"/></symbol><symbol id="social-marmoset" viewBox="0 0 16 16"><path fill-rule="evenodd" d="M2 0h12a2 2 0 0 1 2 2v12a2 2 0 0 1-2 2H2a2 2 0 0 1-2-2V2a2 2 0 0 1 2-2Zm3.576 11.408h-.03c0 .277-.014.556.004.833.044.698.225 1.354.658 1.914.34.44.716.495 1.169.174a4.08 4.08 0 0 0 .454-.383c.167-.16.305-.15.467.013.168.166.346.328.542.454.331.214.615.173.874-.126a2.75 2.75 0 0 0 .379-.572c.312-.629.393-1.306.378-2.002-.008-.385-.02-.774.014-1.156.05-.542.253-.755.781-.828.473-.066.95-.086 1.425-.137a2.431 2.431 0 0 0 1.777-1.042c.601-.838.8-1.787.691-2.806-.078-.733-.352-1.372-.956-1.822a2.823 2.823 0 0 0-1.368-.527c-2.026-.246-3.075.45-3.821 1.898a5.082 5.082 0 0 1-.278.478c-.287.434-.532.446-.855.046-.086-.107-.161-.224-.24-.338-.16-.234-.311-.474-.48-.702-.472-.634-1.068-1.088-1.837-1.285a4.415 4.415 0 0 0-2.227-.01C2.09 3.74 1.465 4.388 1.24 5.42a3.87 3.87 0 0 0 .167 2.23 3.091 3.091 0 0 0 2.77 1.993c.22.01.443.022.663.047.507.06.7.254.733.77.02.314.004.632.004.948ZM4.35 6.568c.324.021.649.04.973.065.397.03.73.197.984.51.173.213.334.436.498.658.083.113.072.215-.055.29-.513.3-1.032.584-1.637.646a1.06 1.06 0 0 1-.941-.355c-.4-.442-.612-.985-.78-1.55-.048-.164.039-.234.185-.237.257-.006.514-.002.772-.002v-.025Zm7.165 1.955c-.52-.04-1.087-.327-1.63-.67-.05-.032-.082-.197-.048-.243.227-.306.438-.641.725-.878.214-.177.527-.28.807-.31.532-.058 1.072-.048 1.609-.05.291-.002.354.08.242.352a9.938 9.938 0 0 1-.59 1.243c-.21.358-.542.576-1.115.556Z"/></symbol><symbol id="social-facebook" viewBox="0 0 16 16"><path d="M11 16v-6h2l.5-2.5H11v-1c0-1 .501-1.5 1.5-1.5h1V2.5h-2c-1.838 0-3 1.44-3 3.5v1.5h-2V10h2v6H1a1 1 0 0 1-1-1V1a1 1 0 0 1 1-1h14a1 1 0 0 1 1 1v14a1 1 0 0 1-1 1h-4Z"/></symbol><symbol id="ui-search" viewBox="0 0 16 16"><path d="m11.749 10.335 3.958 3.958a1 1 0 0 1-1.414 1.414l-3.958-3.958a6.5 6.5 0 1 1 1.414-1.414ZM6.5 11a4.5 4.5 0 1 0 0-9 4.5 4.5 0 0 0 0 9Z"/></symbol><symbol id="social-artstation" viewBox="0 0 16 16"><path fill-rule="evenodd" d="M0 11.833h9.884l1.857 3.219H2.79c-.63 0-1.174-.361-1.44-.887L0 11.833Zm15.966.017c0 .365-.069.552-.32.976l-1.278 2.212L6.266 1h2.772c.618 0 1.154.347 1.425.858l5.246 9.118c.162.252.257.552.257.874ZM8.563 9.547H1.32l3.622-6.273 3.62 6.273Z"/></symbol><symbol id="editor-underline" viewBox="0 0 16 16"><path d="M2.375 2.744a2.982 2.982 0 0 1-.352-.031L2 2.025a4.39 4.39 0 0 1 .312-.008c.313 0 .604.01.875.031.687.037 1.12.055 1.297.055.448 0 .886-.008 1.313-.023l1.141-.039c.292 0 .516-.005.672-.016l-.008.109.016.5v.07c-.313.047-.636.07-.969.07-.313 0-.518.065-.617.195-.068.073-.102.416-.102 1.031 0 .068.001.153.004.254l.004.199.008 1.789.109 2.188c.031.646.164 1.172.398 1.578.182.307.432.547.75.719.459.245.92.367 1.383.367a4.84 4.84 0 0 0 1.492-.219c.292-.094.55-.227.773-.398.25-.187.42-.354.508-.5a3.45 3.45 0 0 0 .414-.891c.11-.38.164-.976.164-1.789 0-.411-.009-.745-.027-1a30.927 30.927 0 0 0-.086-.957c-.04-.383-.074-.798-.105-1.246l-.031-.461c-.026-.349-.088-.578-.187-.688-.177-.182-.378-.27-.602-.266l-.781.016-.109-.023.016-.672h.656l1.602.078c.396.015.906-.01 1.531-.078l.141.016c.031.198.047.33.047.398 0 .037-.01.117-.031.242a2.843 2.843 0 0 1-.656.102c-.38.057-.586.102-.617.133a.432.432 0 0 0-.117.32c0 .037.004.107.012.211s.012.185.012.242c.041.099.099 1.13.172 3.094.031 1.015-.008 1.807-.117 2.375-.078.396-.185.714-.32.953-.198.339-.49.659-.875.961-.39.297-.865.528-1.422.695-.568.172-1.232.258-1.992.258-.87 0-1.61-.12-2.219-.359-.62-.245-1.086-.562-1.398-.953-.318-.396-.534-.904-.648-1.523-.083-.417-.125-1.034-.125-1.852V4.711c0-.98-.044-1.534-.133-1.664-.13-.187-.513-.289-1.148-.305l-.005.002ZM14 13.752v-.5a.239.239 0 0 0-.25-.25H2.25a.239.239 0 0 0-.25.25v.5a.239.239 0 0 0 .25.25h11.5a.239.239 0 0 0 .25-.25Z"/></symbol><symbol id="menu-events" viewBox="0 0 24 24"><path d="M7 5H5a1 1 0 0 0-1 1v3h16V6a1 1 0 0 0-1-1h-2v1a1 1 0 0 1-2 0V5H9v1a1 1 0 1 1-2 0V5Zm2-2h6V2a1 1 0 0 1 2 0v1h2a3 3 0 0 1 3 3v14a3 3 0 0 1-3 3H5a3 3 0 0 1-3-3V6a3 3 0 0 1 3-3h2V2a1 1 0 1 1 2 0v1Zm11 8H4v9a1 1 0 0 0 1 1h14a1 1 0 0 0 1-1v-9Z"/></symbol><symbol id="ui-help-circled" viewBox="0 0 16 16"><path d="M8 0a8 8 0 1 0 .001 16.001A8 8 0 0 0 8 0Zm.721 11.668c-.017.636-.489 1.028-1.1 1.01-.585-.017-1.046-.435-1.028-1.074.018-.636.503-1.04 1.09-1.022.613.018 1.06.45 1.038 1.086Zm1.74-4.547c-.15.211-.486.483-.907.811l-.468.322a1.238 1.238 0 0 0-.447.617c-.039.125-.068.45-.075.668-.003.043-.028.14-.16.14H7.007c-.146 0-.164-.086-.16-.129.02-.593.107-1.082.353-1.475.332-.529 1.268-1.086 1.268-1.086.143-.107.253-.221.34-.346.156-.214.285-.454.285-.71 0-.297-.072-.58-.26-.815-.222-.275-.462-.407-.922-.407-.454 0-.718.228-.907.528-.19.3-.158.654-.158.975H5.107c0-1.214.318-1.989.99-2.446.453-.31 1.032-.447 1.707-.447.885 0 1.589.165 2.21.636.575.436.879 1.05.879 1.879 0 .51-.179.939-.432 1.285Z"/></symbol><symbol id="social-android" viewBox="0 0 16 16"><path d="M3.545 8.17V5.13h8.91v6.607c0 .27-.175.553-.454.553h-1.098v2.068a.952.952 0 0 1-.954.954h-.02a.889.889 0 0 1-.585-.214.95.95 0 0 1-.35-.74V12.29H7.045v2.068a.952.952 0 0 1-.954.954.952.952 0 0 1-.955-.954V12.29H4c-.275 0-.454-.283-.454-.557V8.169Zm10.5-3.676c.53 0 .955.426.955.955v3.818a.952.952 0 0 1-.955.955.952.952 0 0 1-.954-.955V5.449c0-.53.425-.955.954-.955Zm-12.09 0c.529 0 .954.426.954.955v3.818a.952.952 0 0 1-.954.955A.952.952 0 0 1 1 9.267V5.449c0-.53.426-.955.955-.955Zm8.24-3.456c1.925.847 2.208 2.86 2.244 3.46H3.545c.04-.596.327-2.637 2.244-3.468L5.06.171c-.016-.028.008-.068.051-.1.044-.031.092-.035.108-.015l.756.89C6.516.737 7.18.606 7.996.61c.811 0 1.472.135 2.013.35l.763-.907c.012-.024.064-.016.108.016.043.035.067.08.051.099l-.736.871Zm-4.152 1.98a.533.533 0 0 0 .537-.528.536.536 0 0 0-.537-.53.533.533 0 0 0-.537.53c0 .29.243.529.537.529Zm3.914 0a.536.536 0 0 0 .537-.528.536.536 0 0 0-.537-.53.533.533 0 0 0-.537.53c0 .29.242.529.537.529Z"/></symbol><symbol id="social-soundcloud" viewBox="0 0 16 16"><path fill-rule="evenodd" d="M6.872 12.43V3.974c0-.27.077-.43.23-.482a4.218 4.218 0 0 1 3.112.435 4.45 4.45 0 0 1 1.59 1.527c.405.645.64 1.356.704 2.133.303-.135.626-.202.968-.202.695 0 1.29.257 1.783.77.494.512.741 1.129.741 1.849a2.58 2.58 0 0 1-.74 1.857c-.495.513-1.087.77-1.777.77l-6.477-.008a.176.176 0 0 1-.1-.086.237.237 0 0 1-.034-.109Zm-1.742-.226c0 .285.183.427.55.427.368 0 .552-.142.552-.427V4.433c0-.435-.136-.732-.383-.764-.167-.023-.322-.022-.48.118-.16.14-.24.392-.24.646v7.771Zm-1.713-.023c0 .15.052.263.157.338a.671.671 0 0 0 .402.112.64.64 0 0 0 .39-.112c.102-.075.153-.188.153-.338V7.386a.581.581 0 0 0-.16-.412.527.527 0 0 0-.778 0 .574.574 0 0 0-.164.412v4.795Zm-1.705-.249c0 .15.051.263.153.338a.64.64 0 0 0 .39.113.655.655 0 0 0 .4-.113c.101-.075.152-.188.152-.338V6.68a.558.558 0 0 0-.16-.4.52.52 0 0 0-.391-.168.512.512 0 0 0-.384.168.558.558 0 0 0-.16.4v5.253ZM0 10.968c0 .208.072.364.216.47a.571.571 0 0 0 .461.113c.154-.03.262-.088.324-.17.062-.084.093-.22.093-.413V8.715a.568.568 0 0 0-.16-.408.52.52 0 0 0-.39-.167.512.512 0 0 0-.384.167.567.567 0 0 0-.16.408v2.253Z"/></symbol><symbol id="ui-user" viewBox="0 0 16 16"><path d="M8 6a2 2 0 1 0 0-4 2 2 0 0 0 0 4Zm0 2a4 4 0 1 1 0-8 4 4 0 0 1 0 8Zm-6 7a1 1 0 0 1-2 0v-2a4 4 0 0 1 4-4h8a4 4 0 0 1 4 4v2a1 1 0 0 1-2 0v-2a2 2 0 0 0-2-2H4a2 2 0 0 0-2 2v2Z"/></symbol><symbol id="ui-cube" viewBox="0 0 16 16"><path d="M14.603 5.253c-.056 0-.11.01-.16.031l-5.55 2.878h-.002a.788.788 0 0 0-.391.67v5.809c0 .2.175.359.397.359a.428.428 0 0 0 .19-.044c.007-.003.013-.006.016-.01l5.46-2.896.009-.003a.793.793 0 0 0 .428-.69V5.612c0-.2-.178-.36-.397-.36Zm-.406-1.55L8.519 1.15S8.184 1 8 1s-.516.15-.516.15L1.8 3.703s-.25.103-.25.297c0 .206.26.36.26.36l5.796 3.056a.965.965 0 0 0 .394.08.97.97 0 0 0 .397-.084l5.794-3.059s.234-.125.234-.36c.003-.196-.228-.29-.228-.29Zm-7.088 4.46L1.556 5.28a.439.439 0 0 0-.16-.031c-.218 0-.396.16-.396.36v5.743c0 .294.172.55.428.69l.006.004 5.46 2.897c.06.034.131.053.206.053.219 0 .397-.163.397-.36V8.831a.78.78 0 0 0-.388-.668Z"/></symbol><symbol id="ui-eye" viewBox="0 0 16 16"><path d="M8 3C2.714 3 0 8 0 8s2.048 5 8 5c5.39 0 8-4.98 8-4.98S13.37 3 8 3Zm.012 8.125c-1.932 0-3.33-1.367-3.33-3.125s1.398-3.125 3.33-3.125c1.933 0 3.33 1.367 3.33 3.125s-1.397 3.125-3.33 3.125Zm0-5c-1.104.002-1.998.87-1.998 1.875 0 1.004.894 1.875 1.998 1.875 1.105 0 1.998-.872 1.998-1.875 0-1.005-.893-1.877-1.998-1.875Z"/></symbol><symbol id="social-twitter" viewBox="0 0 16 16"><path d="M16 2.659c-.59.28-1.22.47-1.885.558a3.509 3.509 0 0 0 1.444-1.955c-.634.405-1.336.7-2.085.857C12.874 1.43 12.019 1 11.077 1 9.263 1 7.795 2.582 7.795 4.533c0 .277.027.547.085.806-2.73-.146-5.15-1.554-6.768-3.694a3.74 3.74 0 0 0-.444 1.776c0 1.225.583 2.308 1.465 2.942A3.037 3.037 0 0 1 .64 5.922v.044c0 1.713 1.132 3.139 2.634 3.463-.274.08-.566.124-.864.124-.21 0-.417-.022-.617-.066.417 1.404 1.63 2.425 3.068 2.454-1.122.948-2.54 1.513-4.079 1.513-.264 0-.525-.018-.783-.05A8.719 8.719 0 0 0 5.025 15c6.045 0 9.348-5.385 9.348-10.055 0-.153-.004-.306-.01-.456.64-.5 1.196-1.12 1.637-1.83Z"/></symbol><symbol id="social-ios" viewBox="0 0 16 16"><path d="M8.096.096c4.352 0 7.904 3.52 7.872 7.872a7.866 7.866 0 0 1-7.872 7.872A7.866 7.866 0 0 1 .224 7.968 7.866 7.866 0 0 1 8.096.096Zm.288 10.368c.896-.416 1.408-1.344 1.376-2.528 0-1.184-.512-2.144-1.408-2.592a2.616 2.616 0 0 0-1.12-.256c-.416 0-.768.096-1.12.256-.896.448-1.408 1.408-1.408 2.592 0 1.184.512 2.112 1.408 2.528.256.128.48.192.864.224.192 0 .352.032.544 0 .384-.032.608-.096.864-.224ZM7.616 5.92c.512.128.928.64 1.088 1.344A2.765 2.765 0 0 1 8.64 8.8c-.256.704-.768 1.088-1.376 1.088-.64.032-1.152-.384-1.376-1.088a3.519 3.519 0 0 1-.064-1.536c.16-.704.544-1.184 1.088-1.344.224-.064.48-.032.704 0ZM4.16 10.688V6.72H3.136v3.968H4.16Zm-.512-4.512a.56.56 0 0 0 .544-.544.56.56 0 0 0-.544-.544.56.56 0 0 0-.544.544.56.56 0 0 0 .544.544Zm9.792 3.552c.128-.256.16-.384.16-.64 0-.352-.096-.704-.416-1.024-.224-.224-.48-.384-1.024-.608-.736-.32-.928-.448-.992-.768-.096-.48.416-.768.896-.768.352.032.736.128 1.088.256 0 0 .224-.736.224-.768 0-.064-.416-.192-.768-.256a5.134 5.134 0 0 0-.992 0c-.8.16-1.344.64-1.44 1.312-.064.224-.032.512.064.736.192.448.64.768 1.376 1.056.672.256.896.448.96.8.064.32-.096.576-.384.736-.544.224-1.344-.032-1.92-.224l-.224.8c.352.192.768.256 1.216.32.096.032.448.032.608 0 .768-.064 1.312-.416 1.568-.96Z"/></symbol><symbol id="editor-align-justify" viewBox="0 0 16 16"><path d="M15 11.5v1c0 .135-.05.253-.148.352A.476.476 0 0 1 14.5 13h-13a.483.483 0 0 1-.352-.148A.476.476 0 0 1 1 12.5v-1c0-.135.05-.253.148-.352A.476.476 0 0 1 1.5 11h13c.135 0 .253.05.352.148.1.099.149.216.148.352Zm0-3v1c0 .135-.05.253-.148.352A.476.476 0 0 1 14.5 10h-13a.483.483 0 0 1-.352-.148A.476.476 0 0 1 1 9.5v-1c0-.135.05-.253.148-.352A.476.476 0 0 1 1.5 8h13c.135 0 .253.05.352.148.1.099.149.216.148.352Zm0-3v1c0 .135-.05.253-.148.352A.476.476 0 0 1 14.5 7h-13a.483.483 0 0 1-.352-.148A.476.476 0 0 1 1 6.5v-1c0-.135.05-.253.148-.352A.476.476 0 0 1 1.5 5h13c.135 0 .253.05.352.148.1.099.149.216.148.352Zm0-3v1c0 .135-.05.253-.148.352A.476.476 0 0 1 14.5 4h-13a.483.483 0 0 1-.352-.148A.476.476 0 0 1 1 3.5v-1c0-.135.05-.253.148-.352A.476.476 0 0 1 1.5 2h13c.135 0 .253.05.352.148.1.099.149.216.148.352Z"/></symbol><symbol id="navbar-filter" viewBox="0 0 24 24"><path d="M16 19h5a1 1 0 0 1 0 2h-5v1a1 1 0 0 1-2 0v-4a1 1 0 0 1 2 0v1Zm-4 0v2H3a1 1 0 0 1 0-2h9Zm-2-8h11a1 1 0 0 1 0 2H10v1a1 1 0 0 1-2 0v-4a1 1 0 1 1 2 0v1Zm-4 0v2H3a1 1 0 0 1 0-2h3Zm10-8h5a1 1 0 0 1 0 2h-5v1a1 1 0 0 1-2 0V2a1 1 0 0 1 2 0v1Zm-4 0v2H3a1 1 0 1 1 0-2h9Z"/></symbol><symbol id="ui-chevron-left" viewBox="0 0 16 16"><path d="m7.414 8 3.293-3.293a1 1 0 1 0-1.414-1.414l-4 4a1 1 0 0 0 0 1.414l4 4a1 1 0 1 0 1.414-1.414L7.414 8Z"/></symbol><symbol id="ui-bars-two-of-three" viewBox="0 0 16 16"><rect width="4" height="12" y="2" rx="1"/><rect width="4" height="12" x="6" y="2" rx="1"/><rect width="4" height="12" x="12" y="2" opacity=".3" rx="1"/></symbol><symbol id="menu-marketplace" viewBox="0 0 24 24"><path d="M8 24a3 3 0 1 1 0-6 3 3 0 0 1 0 6Zm0-2a1 1 0 1 0 0-2 1 1 0 0 0 0 2Zm12 2a3 3 0 1 1 0-6 3 3 0 0 1 0 6Zm0-2a1 1 0 1 0 0-2 1 1 0 0 0 0 2Zm.34-7.806L21.78 7H9a1 1 0 1 1 0-2h14a1 1 0 0 1 .98 1.196l-1.68 8.389A2.995 2.995 0 0 1 19.32 17H8.758a3 3 0 0 1-3-2.61L4.239 2.87A1 1 0 0 0 3.25 2H1a1 1 0 1 1 0-2h2.252a3 3 0 0 1 2.97 2.61l1.52 11.52c.065.501.494.874 1.008.87h10.59a1 1 0 0 0 1-.806Z"/></symbol><symbol id="ui-share" viewBox="0 0 16 16"><path d="M12.16 10.92c-.53 0-1.024.176-1.377.527l-5.05-2.92c.034-.175.07-.316.07-.492s-.036-.317-.07-.492l4.98-2.885c.388.352.882.563 1.447.563 1.166 0 2.12-.95 2.12-2.11C14.28 1.95 13.325 1 12.16 1c-1.165 0-2.119.95-2.119 2.11 0 .176.035.317.07.493l-4.98 2.884a2.126 2.126 0 0 0-1.447-.562c-1.166 0-2.084.95-2.084 2.11 0 1.161.953 2.11 2.12 2.11.564 0 1.059-.21 1.447-.562l5.015 2.92c-.035.14-.07.281-.07.457 0 1.126.918 2.04 2.048 2.04s2.048-.914 2.048-2.04-.918-2.04-2.048-2.04Z"/></symbol><symbol id="menu-tutorials" viewBox="0 0 24 24"><path d="M6 4.832v14.336L17.15 12 6 4.832Zm-.46-2.673 14 9a1 1 0 0 1 0 1.682l-14 9A1 1 0 0 1 4 21V3a1 1 0 0 1 1.54-.841Z"/></symbol><symbol id="ui-flag" viewBox="0 0 16 16"><path d="M13.943 5.375s.421-.09.768-.232a3.24 3.24 0 0 1-.311 1.293c-.993 1.8-3.557 4.385-6.486 2.982-2.335-1.122-3.278-1.029-4.171-.832-.032.007-.057.01-.086.018-.11.021-.543.182-.946.028V1.611c0-.554.51-1.125 1.193-1.25C5.307.104 7.707.189 9.193 3.014c1.386 2.629 3.471 2.572 4.75 2.361ZM1.857 0c.157 0 .286.129.286.286v15.428a.287.287 0 0 1-.286.286h-.571A.287.287 0 0 1 1 15.714V.286C1 .129 1.129 0 1.286 0h.571Z"/></symbol><symbol id="editor-list" viewBox="0 0 16 16"><path d="M3 11.25v1.5a.24.24 0 0 1-.074.176.24.24 0 0 1-.176.074h-1.5a.24.24 0 0 1-.176-.074A.24.24 0 0 1 1 12.75v-1.5a.24.24 0 0 1 .074-.176A.24.24 0 0 1 1.25 11h1.5a.24.24 0 0 1 .176.074.24.24 0 0 1 .074.176Zm0-3v1.5a.24.24 0 0 1-.074.176.24.24 0 0 1-.176.074h-1.5a.24.24 0 0 1-.176-.074A.24.24 0 0 1 1 9.75v-1.5a.24.24 0 0 1 .074-.176A.24.24 0 0 1 1.25 8h1.5a.24.24 0 0 1 .176.074A.24.24 0 0 1 3 8.25Zm0-3v1.5a.24.24 0 0 1-.074.176A.24.24 0 0 1 2.75 7h-1.5a.24.24 0 0 1-.176-.074A.24.24 0 0 1 1 6.75v-1.5a.24.24 0 0 1 .074-.176A.24.24 0 0 1 1.25 5h1.5a.24.24 0 0 1 .176.074A.24.24 0 0 1 3 5.25Zm12 6v1.5a.24.24 0 0 1-.074.176.24.24 0 0 1-.176.074H4.25a.24.24 0 0 1-.176-.074A.24.24 0 0 1 4 12.75v-1.5a.24.24 0 0 1 .074-.176A.24.24 0 0 1 4.25 11h10.5a.24.24 0 0 1 .176.074.24.24 0 0 1 .074.176Zm-12-9v1.5a.24.24 0 0 1-.074.176A.24.24 0 0 1 2.75 4h-1.5a.24.24 0 0 1-.176-.074A.24.24 0 0 1 1 3.75v-1.5a.24.24 0 0 1 .074-.176A.24.24 0 0 1 1.25 2h1.5a.24.24 0 0 1 .176.074A.24.24 0 0 1 3 2.25Zm12 6v1.5a.24.24 0 0 1-.074.176.24.24 0 0 1-.176.074H4.25a.24.24 0 0 1-.176-.074A.24.24 0 0 1 4 9.75v-1.5a.24.24 0 0 1 .074-.176A.24.24 0 0 1 4.25 8h10.5a.24.24 0 0 1 .176.074.24.24 0 0 1 .074.176Zm0-3v1.5a.24.24 0 0 1-.074.176.24.24 0 0 1-.176.074H4.25a.24.24 0 0 1-.176-.074A.24.24 0 0 1 4 6.75v-1.5a.24.24 0 0 1 .074-.176A.24.24 0 0 1 4.25 5h10.5a.24.24 0 0 1 .176.074.24.24 0 0 1 .074.176Zm0-3v1.5a.24.24 0 0 1-.074.176.24.24 0 0 1-.176.074H4.25a.24.24 0 0 1-.176-.074A.24.24 0 0 1 4 3.75v-1.5a.24.24 0 0 1 .074-.176A.24.24 0 0 1 4.25 2h10.5a.24.24 0 0 1 .176.074.24.24 0 0 1 .074.176Z"/></symbol><symbol id="editor-list-ul" viewBox="0 0 16 16"><path d="M4 11.5c0 .417-.146.77-.438 1.062A1.451 1.451 0 0 1 2.5 13c-.416 0-.77-.145-1.062-.438A1.448 1.448 0 0 1 1 11.5c0-.415.146-.77.438-1.062A1.441 1.441 0 0 1 2.5 10c.416 0 .77.147 1.062.438.292.291.438.645.438 1.062Zm0-4c0 .417-.146.77-.438 1.062A1.451 1.451 0 0 1 2.5 9c-.416 0-.77-.145-1.062-.438A1.448 1.448 0 0 1 1 7.5c0-.415.146-.77.438-1.062A1.441 1.441 0 0 1 2.5 6c.416 0 .77.147 1.062.438.292.291.438.645.438 1.062Zm11 3.25v1.5a.24.24 0 0 1-.074.176.24.24 0 0 1-.176.074h-9.5a.24.24 0 0 1-.176-.074A.24.24 0 0 1 5 12.25v-1.5a.24.24 0 0 1 .074-.176.24.24 0 0 1 .176-.074h9.5a.24.24 0 0 1 .176.074.24.24 0 0 1 .074.176ZM4 3.5c0 .417-.146.77-.438 1.062A1.451 1.451 0 0 1 2.5 5c-.416 0-.77-.145-1.062-.438A1.448 1.448 0 0 1 1 3.5c0-.415.146-.77.438-1.062A1.441 1.441 0 0 1 2.5 2c.416 0 .77.147 1.062.438.292.291.438.645.438 1.062Zm11 3.25v1.5a.24.24 0 0 1-.074.176.24.24 0 0 1-.176.074h-9.5a.24.24 0 0 1-.176-.074A.24.24 0 0 1 5 8.25v-1.5a.24.24 0 0 1 .074-.176.24.24 0 0 1 .176-.074h9.5a.24.24 0 0 1 .176.074.24.24 0 0 1 .074.176Zm0-4v1.5a.24.24 0 0 1-.074.176.24.24 0 0 1-.176.074h-9.5a.24.24 0 0 1-.176-.074A.24.24 0 0 1 5 4.25v-1.5a.24.24 0 0 1 .074-.176.24.24 0 0 1 .176-.074h9.5a.24.24 0 0 1 .176.074.24.24 0 0 1 .074.176Z"/></symbol><symbol id="editor-paragraph" viewBox="0 0 16 16"><path d="M12.799 2.475v.57c0 .151-.048.31-.145.477-.097.167-.207.25-.332.25-.26 0-.401.003-.422.008a.309.309 0 0 0-.25.242c-.015.057-.023.224-.023.5v9c0 .13-.047.242-.141.336a.459.459 0 0 1-.336.141h-.844a.459.459 0 0 1-.336-.141.459.459 0 0 1-.141-.336V4.006H8.712v9.516c0 .13-.046.242-.137.336a.455.455 0 0 1-.34.141h-.844a.455.455 0 0 1-.34-.141.465.465 0 0 1-.137-.336V9.647C6.149 9.584 5.511 9.431 5 9.186a3.18 3.18 0 0 1-1.5-1.398A4.145 4.145 0 0 1 3 5.765c0-.865.23-1.61.688-2.234.459-.615 1.003-1.029 1.633-1.242C5.899 2.096 6.985 2 8.579 2h3.742c.13 0 .242.047.336.141a.459.459 0 0 1 .141.336l.001-.002Z"/></symbol><symbol id="ui-check" viewBox="0 0 16 16"><path d="m13.93 3.809-1.583-1.24a.282.282 0 0 0-.18-.069.277.277 0 0 0-.18.072L6.223 9.92S3.96 7.758 3.896 7.695c-.064-.063-.148-.169-.274-.169-.127 0-.185.089-.251.155-.05.051-.857.893-1.256 1.311-.023.026-.037.04-.057.06A.28.28 0 0 0 2 9.216c0 .063.023.114.058.163l.08.074s4.02 3.832 4.086 3.898c.066.066.147.149.266.149.115 0 .21-.123.265-.178l7.187-9.164A.283.283 0 0 0 14 3.992a.294.294 0 0 0-.07-.183Z"/></symbol><symbol id="ui-cart" viewBox="0 0 16 16"><path d="M7 5a1 1 0 1 1 0-2h8a1 1 0 0 1 .894 1.447l-3 6A1 1 0 0 1 12 11H6a1 1 0 0 1-.936-.649l-3-8a1 1 0 0 1 1.872-.702L6.693 9h4.689l2-4H7ZM2.307 3H1a1 1 0 1 1 0-2h2a1 1 0 0 1 .936.649l3 8a1 1 0 1 1-1.872.702L2.307 3ZM15 4l-3 6H6L4 4h11ZM5.387 5l1.334 4h4.661l2-4H5.387Zm10.507-.553-3 6A1 1 0 0 1 12 11H6a1 1 0 0 1-.949-.684l-2-6A1 1 0 0 1 4 3h11a1 1 0 0 1 .894 1.447ZM6 16a2 2 0 1 1 0-4 2 2 0 0 1 0 4Zm7 0a2 2 0 1 1 0-4 2 2 0 0 1 0 4Z"/></symbol><symbol id="icon-physics" viewBox="0 0 24 24"><path d="M12.224 3.311c3.255-1.557 6.412-1.646 8.261.204 1.892 1.892 1.756 5.151.094 8.485 1.662 3.334 1.798 6.594-.094 8.485-1.892 1.892-5.151 1.756-8.485.094-3.334 1.662-6.593 1.798-8.485-.094-1.892-1.891-1.756-5.15-.095-8.484-1.661-3.335-1.797-6.594.095-8.486C5.407 1.623 8.666 1.759 12 3.42Zm7.098 10.806-.024.034a20.57 20.57 0 0 1-2.348 2.799c-.905.905-1.86 1.7-2.833 2.372 2.115.784 3.966.738 4.954-.25.989-.99 1.035-2.84.25-4.955Zm-14.644 0-.076.213c-.704 2.026-.628 3.786.327 4.741.988.989 2.839 1.035 4.954.25A20.572 20.572 0 0 1 7.05 16.95c-.905-.905-1.7-1.86-2.372-2.833ZM12 5.698l-.094.056a17.994 17.994 0 0 0-3.442 2.71 17.934 17.934 0 0 0-2.767 3.537 17.964 17.964 0 0 0 2.767 3.535 17.934 17.934 0 0 0 3.537 2.767 17.964 17.964 0 0 0 3.535-2.767A17.935 17.935 0 0 0 18.302 12a17.91 17.91 0 0 0-2.766-3.536A17.935 17.935 0 0 0 12 5.698ZM12 9a3 3 0 1 1 0 6 3 3 0 0 1 0-6Zm0 2a1 1 0 1 0 0 2 1 1 0 0 0 0-2ZM4.929 4.929c-.989.988-1.035 2.839-.25 4.954A20.572 20.572 0 0 1 7.05 7.05c.905-.905 1.86-1.7 2.833-2.372-2.115-.784-3.966-.738-4.954.25Zm14.142 0c-.988-.989-2.839-1.035-4.954-.25A20.572 20.572 0 0 1 16.95 7.05c.905.905 1.7 1.86 2.372 2.833.784-2.115.738-3.966-.25-4.954Z"/></symbol><symbol id="hexagon" viewBox="0 0 48 48"><path d="M20.5 1.443a1 1 0 0 1 1 0L40.285 12.29a1 1 0 0 1 .5.866v21.69a1 1 0 0 1-.5.866L21.5 46.557a1 1 0 0 1-1 0L1.715 35.71a1 1 0 0 1-.5-.866v-21.69a1 1 0 0 1 .5-.866L20.5 1.443Z" fill="none" stroke-width="2"/></symbol><symbol id="ui-check-progress" viewBox="0 0 16 16"><path d="M8 0c-.611 0-1.205.062-1.775.182l.412 1.957C7.07 2.05 7.525 2 8 2c3.448 0 6 2.552 6 6s-2.552 6-6 6a6.6 6.6 0 0 1-1.363-.14l-.412 1.958C6.795 15.938 7.39 16 8 16c4.552 0 8-3.448 8-8s-3.448-8-8-8ZM3.717 1.172a7.645 7.645 0 0 0-2.545 2.545L2.88 4.76a5.645 5.645 0 0 1 1.88-1.88L3.718 1.171ZM.182 6.225A8.604 8.604 0 0 0 0 8c0 .611.062 1.205.182 1.775l1.957-.412A6.603 6.603 0 0 1 2 8c0-.475.048-.93.14-1.363L.181 6.225ZM1.172 12.283a7.646 7.646 0 0 0 2.545 2.545L4.76 13.12a5.645 5.645 0 0 1-1.88-1.88l-1.708 1.042Z"/><path d="M11.031 4.2c-.05 0-.097.021-.132.052l-4.19 5.345S5.06 8.024 5.014 7.978a1.229 1.229 0 0 1-.019-.018c-.043-.046-.1-.105-.18-.105-.07 0-.11.037-.147.075l-.036.038-.134.14c-.199.207-.568.592-.779.814l-.042.044a.204.204 0 0 0-.042.118.2.2 0 0 0 .042.12l.059.053s2.923 2.787 2.971 2.835l.004.003c.047.048.105.105.19.105.07 0 .131-.064.172-.108l.02-.02 5.228-6.666a.205.205 0 0 0 .042-.12.213.213 0 0 0-.05-.134L11.16 4.25a.205.205 0 0 0-.13-.05Z"/></symbol><symbol id="ui-folder" viewBox="0 0 16 13"><path d="M8.276 2.207 7.172 0H1.105C.495 0 0 .49 0 1.099v9.94c0 .607.496 1.099 1.1 1.099h13.8a1.1 1.1 0 0 0 1.1-1.1v-7.73c0-.608-.495-1.101-1.107-1.101H8.276Z"/></symbol><symbol id="ui-diamond" viewBox="0 0 16 16"><path fill-rule="evenodd" clip-rule="evenodd" d="M8 2.829 2.828 8 8 13.172 13.17 8 8 2.83ZM6.585 1.414 1.414 6.586a2 2 0 0 0 0 2.828l5.171 5.172a2 2 0 0 0 2.829 0l5.171-5.172a2 2 0 0 0 0-2.828L9.415 1.414a2 2 0 0 0-2.829 0Z"/></symbol><symbol id="ui-file-check" viewBox="0 0 24 24"><path d="M15.707 13.707a1 1 0 0 0-1.414-1.414L11 15.586l-1.293-1.293a1 1 0 0 0-1.414 1.414l2 2a1 1 0 0 0 1.414 0l4-4Z"/><path fill-rule="evenodd" clip-rule="evenodd" d="M3.879 1.879A3 3 0 0 1 6 1h8.5a1 1 0 0 1 .707.293l5.5 5.5A1 1 0 0 1 21 7.5V20a3 3 0 0 1-3 3H6a3 3 0 0 1-3-3V4a3 3 0 0 1 .879-2.121ZM6 3h7v5a1 1 0 0 0 1 1h5v11a1 1 0 0 1-1 1H6a1 1 0 0 1-1-1V4a1 1 0 0 1 1-1Zm9 4h3.086L15 3.914V7Z"/></symbol><symbol id="menu-assets" viewBox="0 0 24 24"><path stroke-width="2" stroke-linecap="round" stroke-linejoin="round" d="M0 0h24v24H0z" fill="none"/><path stroke-width="2" stroke="currentColor" fill="none" stroke-linecap="round" stroke-linejoin="round" d="m12 3 8 4.5v9L12 21l-8-4.5v-9L12 3M12 12l8-4.5M12 12v9M12 12 4 7.5"/></symbol><symbol id="menu-assetguide" viewBox="0 0 24 24"><path d="M0 0h24v24H0z" stroke-width="2" fill="none" stroke-linecap="round" stroke-linejoin="round"/><path d="M14 3v4a1 1 0 0 0 1 1h4" stroke-width="2" stroke="currentColor" fill="none" stroke-linecap="round" stroke-linejoin="round"/><path d="M17 21H7a2 2 0 0 1-2-2V5a2 2 0 0 1 2-2h7l5 5v11a2 2 0 0 1-2 2zM12 13.5l4-1.5" stroke-width="2" stroke="currentColor" fill="none" stroke-linecap="round" stroke-linejoin="round"/><path d="m8 11.846 4 1.654V18l4-1.846v-4.308L12 10zM8 12v4.2l4 1.8" stroke-width="2" stroke="currentColor" fill="none" stroke-linecap="round" stroke-linejoin="round"/></symbol><symbol id="menu-forums" viewBox="0 0 24 24"><path d="M6.293 16.293A1 1 0 0 1 7 16h12a1 1 0 0 0 1-1V5a1 1 0 0 0-1-1H5a1 1 0 0 0-1 1v13.586l2.293-2.293ZM7.414 18l-3.707 3.707C3.077 22.337 2 21.891 2 21V5a3 3 0 0 1 3-3h14a3 3 0 0 1 3 3v10a3 3 0 0 1-3 3H7.414Z"/></symbol><symbol id="ui-more" viewBox="0 0 16 16"><path fill-rule="evenodd" d="M2 10a2 2 0 1 1 0-4 2 2 0 0 1 0 4Zm6 0a2 2 0 1 1 0-4 2 2 0 0 1 0 4Zm6 0a2 2 0 1 1 0-4 2 2 0 0 1 0 4Z"/></symbol><symbol id="editor-keyboard" viewBox="0 0 16 16"><path d="M3 2a1 1 0 0 0-1 1v10a1 1 0 0 0 1 1h10a1 1 0 0 0 1-1V3a1 1 0 0 0-1-1H3Zm0-1h10a2 2 0 0 1 2 2v10a2 2 0 0 1-2 2H3a2 2 0 0 1-2-2V3a2 2 0 0 1 2-2Zm6.479 11L7.682 9.473l-.692.761V12H5.783V3.914H6.99v4.57h.078L9.17 6.188h1.488L8.46 8.617 10.896 12H9.48Z"/></symbol></svg>